ISO-10303-21;
HEADER;
FILE_DESCRIPTION(('FreeCAD Model'),'2;1');
FILE_NAME('Open CASCADE Shape Model','2026-05-11T22:26:36',(''),(''),
  'Open CASCADE STEP processor 7.8','FreeCAD','Unknown');
FILE_SCHEMA(('AUTOMOTIVE_DESIGN { 1 0 10303 214 1 1 1 1 }'));
ENDSEC;
DATA;
#1 = APPLICATION_PROTOCOL_DEFINITION('international standard',
  'automotive_design',2000,#2);
#2 = APPLICATION_CONTEXT(
  'core data for automotive mechanical design processes');
#3 = SHAPE_DEFINITION_REPRESENTATION(#4,#10);
#4 = PRODUCT_DEFINITION_SHAPE('','',#5);
#5 = PRODUCT_DEFINITION('design','',#6,#9);
#6 = PRODUCT_DEFINITION_FORMATION('','',#7);
#7 = PRODUCT('Extrusion','Extrusion','',(#8));
#8 = PRODUCT_CONTEXT('',#2,'mechanical');
#9 = PRODUCT_DEFINITION_CONTEXT('part definition',#2,'design');
#10 = ADVANCED_BREP_SHAPE_REPRESENTATION('',(#11,#15),#1524);
#11 = AXIS2_PLACEMENT_3D('',#12,#13,#14);
#12 = CARTESIAN_POINT('',(0.,0.,0.));
#13 = DIRECTION('',(0.,0.,1.));
#14 = DIRECTION('',(1.,0.,-0.));
#15 = MANIFOLD_SOLID_BREP('',#16);
#16 = CLOSED_SHELL('',(#17,#57,#419,#443,#798,#815,#837,#854,#871,#888,
    #905,#922,#939,#956,#973,#990,#1007,#1024,#1041,#1058,#1075,#1092,
    #1109,#1121,#1138,#1155,#1172,#1189,#1206,#1223,#1240,#1257,#1274,
    #1291,#1308,#1325,#1342,#1359,#1376,#1393,#1410,#1427,#1444,#1461,
    #1478,#1495,#1507));
#17 = ADVANCED_FACE('',(#18),#52,.F.);
#18 = FACE_BOUND('',#19,.F.);
#19 = EDGE_LOOP('',(#20,#30,#38,#46));
#20 = ORIENTED_EDGE('',*,*,#21,.F.);
#21 = EDGE_CURVE('',#22,#24,#26,.T.);
#22 = VERTEX_POINT('',#23);
#23 = CARTESIAN_POINT('',(-4.5,-4.5,3.439339481602));
#24 = VERTEX_POINT('',#25);
#25 = CARTESIAN_POINT('',(-4.5,-4.5,-3.439339481602));
#26 = LINE('',#27,#28);
#27 = CARTESIAN_POINT('',(-4.5,-4.5,4.5));
#28 = VECTOR('',#29,1.);
#29 = DIRECTION('',(0.,0.,-1.));
#30 = ORIENTED_EDGE('',*,*,#31,.T.);
#31 = EDGE_CURVE('',#22,#32,#34,.T.);
#32 = VERTEX_POINT('',#33);
#33 = CARTESIAN_POINT('',(-4.5,-224.5,3.439339481602));
#34 = LINE('',#35,#36);
#35 = CARTESIAN_POINT('',(-4.5,-4.5,3.439339481602));
#36 = VECTOR('',#37,1.);
#37 = DIRECTION('',(1.1E-16,-1.,0.));
#38 = ORIENTED_EDGE('',*,*,#39,.T.);
#39 = EDGE_CURVE('',#32,#40,#42,.T.);
#40 = VERTEX_POINT('',#41);
#41 = CARTESIAN_POINT('',(-4.5,-224.5,-3.439339481602));
#42 = LINE('',#43,#44);
#43 = CARTESIAN_POINT('',(-4.5,-224.5,4.5));
#44 = VECTOR('',#45,1.);
#45 = DIRECTION('',(0.,0.,-1.));
#46 = ORIENTED_EDGE('',*,*,#47,.F.);
#47 = EDGE_CURVE('',#24,#40,#48,.T.);
#48 = LINE('',#49,#50);
#49 = CARTESIAN_POINT('',(-4.5,-4.5,-3.439339481602));
#50 = VECTOR('',#51,1.);
#51 = DIRECTION('',(0.,-1.,1.1E-16));
#52 = PLANE('',#53);
#53 = AXIS2_PLACEMENT_3D('',#54,#55,#56);
#54 = CARTESIAN_POINT('',(-4.5,-4.5,4.5));
#55 = DIRECTION('',(1.,0.,0.));
#56 = DIRECTION('',(0.,-1.1E-16,-1.));
#57 = ADVANCED_FACE('',(#58,#403),#414,.T.);
#58 = FACE_BOUND('',#59,.T.);
#59 = EDGE_LOOP('',(#60,#70,#78,#86,#94,#102,#110,#118,#126,#134,#142,
    #148,#149,#157,#165,#173,#181,#189,#197,#205,#213,#221,#229,#237,
    #245,#253,#261,#269,#277,#285,#293,#301,#309,#317,#325,#333,#341,
    #349,#357,#365,#373,#381,#389,#397));
#60 = ORIENTED_EDGE('',*,*,#61,.F.);
#61 = EDGE_CURVE('',#62,#64,#66,.T.);
#62 = VERTEX_POINT('',#63);
#63 = CARTESIAN_POINT('',(-3.439339481602,-4.5,-4.5));
#64 = VERTEX_POINT('',#65);
#65 = CARTESIAN_POINT('',(3.439339481602,-4.5,-4.5));
#66 = LINE('',#67,#68);
#67 = CARTESIAN_POINT('',(-3.439339481602,-4.5,-4.5));
#68 = VECTOR('',#69,1.);
#69 = DIRECTION('',(1.,0.,0.));
#70 = ORIENTED_EDGE('',*,*,#71,.T.);
#71 = EDGE_CURVE('',#62,#72,#74,.T.);
#72 = VERTEX_POINT('',#73);
#73 = CARTESIAN_POINT('',(-4.500000490192,-4.5,-5.560660661972));
#74 = LINE('',#75,#76);
#75 = CARTESIAN_POINT('',(-3.439339481602,-4.5,-4.5));
#76 = VECTOR('',#77,1.);
#77 = DIRECTION('',(-0.707106896726,-0.,-0.707106665647));
#78 = ORIENTED_EDGE('',*,*,#79,.F.);
#79 = EDGE_CURVE('',#80,#72,#82,.T.);
#80 = VERTEX_POINT('',#81);
#81 = CARTESIAN_POINT('',(-4.500000490192,-4.5,-8.500000519927));
#82 = LINE('',#83,#84);
#83 = CARTESIAN_POINT('',(-4.500000490192,-4.5,-8.500000519927));
#84 = VECTOR('',#85,1.);
#85 = DIRECTION('',(0.,0.,1.));
#86 = ORIENTED_EDGE('',*,*,#87,.T.);
#87 = EDGE_CURVE('',#80,#88,#90,.T.);
#88 = VERTEX_POINT('',#89);
#89 = CARTESIAN_POINT('',(-3.,-4.5,-8.500000519927));
#90 = LINE('',#91,#92);
#91 = CARTESIAN_POINT('',(-4.500000490192,-4.5,-8.500000519927));
#92 = VECTOR('',#93,1.);
#93 = DIRECTION('',(1.,0.,0.));
#94 = ORIENTED_EDGE('',*,*,#95,.F.);
#95 = EDGE_CURVE('',#96,#88,#98,.T.);
#96 = VERTEX_POINT('',#97);
#97 = CARTESIAN_POINT('',(-4.500000490192,-4.5,-10.00000051992));
#98 = LINE('',#99,#100);
#99 = CARTESIAN_POINT('',(-4.500000490192,-4.5,-10.00000051992));
#100 = VECTOR('',#101,1.);
#101 = DIRECTION('',(0.707106896726,0.,0.707106665647));
#102 = ORIENTED_EDGE('',*,*,#103,.F.);
#103 = EDGE_CURVE('',#104,#96,#106,.T.);
#104 = VERTEX_POINT('',#105);
#105 = CARTESIAN_POINT('',(-10.,-4.5,-10.00000051992));
#106 = LINE('',#107,#108);
#107 = CARTESIAN_POINT('',(-10.,-4.5,-10.00000051992));
#108 = VECTOR('',#109,1.);
#109 = DIRECTION('',(1.,0.,0.));
#110 = ORIENTED_EDGE('',*,*,#111,.F.);
#111 = EDGE_CURVE('',#112,#104,#114,.T.);
#112 = VERTEX_POINT('',#113);
#113 = CARTESIAN_POINT('',(-10.,-4.5,-4.499999970265));
#114 = LINE('',#115,#116);
#115 = CARTESIAN_POINT('',(-10.,-4.5,-4.499999970265));
#116 = VECTOR('',#117,1.);
#117 = DIRECTION('',(0.,0.,-1.));
#118 = ORIENTED_EDGE('',*,*,#119,.F.);
#119 = EDGE_CURVE('',#120,#112,#122,.T.);
#120 = VERTEX_POINT('',#121);
#121 = CARTESIAN_POINT('',(-8.5,-4.5,-2.999999480072));
#122 = LINE('',#123,#124);
#123 = CARTESIAN_POINT('',(-8.5,-4.5,-2.999999480072));
#124 = VECTOR('',#125,1.);
#125 = DIRECTION('',(-0.707106665647,-0.,-0.707106896726));
#126 = ORIENTED_EDGE('',*,*,#127,.F.);
#127 = EDGE_CURVE('',#128,#120,#130,.T.);
#128 = VERTEX_POINT('',#129);
#129 = CARTESIAN_POINT('',(-8.5,-4.5,-4.499999970265));
#130 = LINE('',#131,#132);
#131 = CARTESIAN_POINT('',(-8.5,-4.5,-4.499999970265));
#132 = VECTOR('',#133,1.);
#133 = DIRECTION('',(0.,0.,1.));
#134 = ORIENTED_EDGE('',*,*,#135,.F.);
#135 = EDGE_CURVE('',#136,#128,#138,.T.);
#136 = VERTEX_POINT('',#137);
#137 = CARTESIAN_POINT('',(-5.560660142045,-4.5,-4.499999970265));
#138 = LINE('',#139,#140);
#139 = CARTESIAN_POINT('',(-5.560660142045,-4.5,-4.499999970265));
#140 = VECTOR('',#141,1.);
#141 = DIRECTION('',(-1.,0.,0.));
#142 = ORIENTED_EDGE('',*,*,#143,.T.);
#143 = EDGE_CURVE('',#136,#24,#144,.T.);
#144 = LINE('',#145,#146);
#145 = CARTESIAN_POINT('',(-5.560660142045,-4.5,-4.499999970265));
#146 = VECTOR('',#147,1.);
#147 = DIRECTION('',(0.707106665647,0.,0.707106896726));
#148 = ORIENTED_EDGE('',*,*,#21,.F.);
#149 = ORIENTED_EDGE('',*,*,#150,.T.);
#150 = EDGE_CURVE('',#22,#151,#153,.T.);
#151 = VERTEX_POINT('',#152);
#152 = CARTESIAN_POINT('',(-5.560660661972,-4.5,4.500000490192));
#153 = LINE('',#154,#155);
#154 = CARTESIAN_POINT('',(-4.5,-4.5,3.439339481602));
#155 = VECTOR('',#156,1.);
#156 = DIRECTION('',(-0.707106665647,0.,0.707106896726));
#157 = ORIENTED_EDGE('',*,*,#158,.F.);
#158 = EDGE_CURVE('',#159,#151,#161,.T.);
#159 = VERTEX_POINT('',#160);
#160 = CARTESIAN_POINT('',(-8.500000519927,-4.5,4.500000490192));
#161 = LINE('',#162,#163);
#162 = CARTESIAN_POINT('',(-8.500000519927,-4.5,4.500000490192));
#163 = VECTOR('',#164,1.);
#164 = DIRECTION('',(1.,0.,0.));
#165 = ORIENTED_EDGE('',*,*,#166,.T.);
#166 = EDGE_CURVE('',#159,#167,#169,.T.);
#167 = VERTEX_POINT('',#168);
#168 = CARTESIAN_POINT('',(-8.500000519927,-4.5,3.));
#169 = LINE('',#170,#171);
#170 = CARTESIAN_POINT('',(-8.500000519927,-4.5,4.500000490192));
#171 = VECTOR('',#172,1.);
#172 = DIRECTION('',(0.,0.,-1.));
#173 = ORIENTED_EDGE('',*,*,#174,.F.);
#174 = EDGE_CURVE('',#175,#167,#177,.T.);
#175 = VERTEX_POINT('',#176);
#176 = CARTESIAN_POINT('',(-10.00000051992,-4.5,4.500000490192));
#177 = LINE('',#178,#179);
#178 = CARTESIAN_POINT('',(-10.00000051992,-4.5,4.500000490192));
#179 = VECTOR('',#180,1.);
#180 = DIRECTION('',(0.707106665647,0.,-0.707106896726));
#181 = ORIENTED_EDGE('',*,*,#182,.F.);
#182 = EDGE_CURVE('',#183,#175,#185,.T.);
#183 = VERTEX_POINT('',#184);
#184 = CARTESIAN_POINT('',(-10.00000051992,-4.5,10.));
#185 = LINE('',#186,#187);
#186 = CARTESIAN_POINT('',(-10.00000051992,-4.5,10.));
#187 = VECTOR('',#188,1.);
#188 = DIRECTION('',(0.,0.,-1.));
#189 = ORIENTED_EDGE('',*,*,#190,.F.);
#190 = EDGE_CURVE('',#191,#183,#193,.T.);
#191 = VERTEX_POINT('',#192);
#192 = CARTESIAN_POINT('',(-4.499999970265,-4.5,10.));
#193 = LINE('',#194,#195);
#194 = CARTESIAN_POINT('',(-4.499999970265,-4.5,10.));
#195 = VECTOR('',#196,1.);
#196 = DIRECTION('',(-1.,0.,0.));
#197 = ORIENTED_EDGE('',*,*,#198,.F.);
#198 = EDGE_CURVE('',#199,#191,#201,.T.);
#199 = VERTEX_POINT('',#200);
#200 = CARTESIAN_POINT('',(-2.999999480072,-4.5,8.5));
#201 = LINE('',#202,#203);
#202 = CARTESIAN_POINT('',(-2.999999480072,-4.5,8.5));
#203 = VECTOR('',#204,1.);
#204 = DIRECTION('',(-0.707106896726,0.,0.707106665647));
#205 = ORIENTED_EDGE('',*,*,#206,.F.);
#206 = EDGE_CURVE('',#207,#199,#209,.T.);
#207 = VERTEX_POINT('',#208);
#208 = CARTESIAN_POINT('',(-4.499999970265,-4.5,8.5));
#209 = LINE('',#210,#211);
#210 = CARTESIAN_POINT('',(-4.499999970265,-4.5,8.5));
#211 = VECTOR('',#212,1.);
#212 = DIRECTION('',(1.,0.,0.));
#213 = ORIENTED_EDGE('',*,*,#214,.F.);
#214 = EDGE_CURVE('',#215,#207,#217,.T.);
#215 = VERTEX_POINT('',#216);
#216 = CARTESIAN_POINT('',(-4.499999970265,-4.5,5.560660142045));
#217 = LINE('',#218,#219);
#218 = CARTESIAN_POINT('',(-4.499999970265,-4.5,5.560660142045));
#219 = VECTOR('',#220,1.);
#220 = DIRECTION('',(0.,0.,1.));
#221 = ORIENTED_EDGE('',*,*,#222,.T.);
#222 = EDGE_CURVE('',#215,#223,#225,.T.);
#223 = VERTEX_POINT('',#224);
#224 = CARTESIAN_POINT('',(-3.439339481602,-4.5,4.5));
#225 = LINE('',#226,#227);
#226 = CARTESIAN_POINT('',(-4.499999970265,-4.5,5.560660142045));
#227 = VECTOR('',#228,1.);
#228 = DIRECTION('',(0.707106896726,0.,-0.707106665647));
#229 = ORIENTED_EDGE('',*,*,#230,.F.);
#230 = EDGE_CURVE('',#231,#223,#233,.T.);
#231 = VERTEX_POINT('',#232);
#232 = CARTESIAN_POINT('',(3.439339481602,-4.5,4.5));
#233 = LINE('',#234,#235);
#234 = CARTESIAN_POINT('',(4.5,-4.5,4.5));
#235 = VECTOR('',#236,1.);
#236 = DIRECTION('',(-1.,0.,0.));
#237 = ORIENTED_EDGE('',*,*,#238,.T.);
#238 = EDGE_CURVE('',#231,#239,#241,.T.);
#239 = VERTEX_POINT('',#240);
#240 = CARTESIAN_POINT('',(4.500000490192,-4.5,5.560660661972));
#241 = LINE('',#242,#243);
#242 = CARTESIAN_POINT('',(3.439339481602,-4.5,4.5));
#243 = VECTOR('',#244,1.);
#244 = DIRECTION('',(0.707106896726,0.,0.707106665647));
#245 = ORIENTED_EDGE('',*,*,#246,.F.);
#246 = EDGE_CURVE('',#247,#239,#249,.T.);
#247 = VERTEX_POINT('',#248);
#248 = CARTESIAN_POINT('',(4.500000490192,-4.5,8.500000519927));
#249 = LINE('',#250,#251);
#250 = CARTESIAN_POINT('',(4.500000490192,-4.5,8.500000519927));
#251 = VECTOR('',#252,1.);
#252 = DIRECTION('',(0.,0.,-1.));
#253 = ORIENTED_EDGE('',*,*,#254,.T.);
#254 = EDGE_CURVE('',#247,#255,#257,.T.);
#255 = VERTEX_POINT('',#256);
#256 = CARTESIAN_POINT('',(3.,-4.5,8.500000519927));
#257 = LINE('',#258,#259);
#258 = CARTESIAN_POINT('',(4.500000490192,-4.5,8.500000519927));
#259 = VECTOR('',#260,1.);
#260 = DIRECTION('',(-1.,0.,0.));
#261 = ORIENTED_EDGE('',*,*,#262,.F.);
#262 = EDGE_CURVE('',#263,#255,#265,.T.);
#263 = VERTEX_POINT('',#264);
#264 = CARTESIAN_POINT('',(4.500000490192,-4.5,10.000000519927));
#265 = LINE('',#266,#267);
#266 = CARTESIAN_POINT('',(4.500000490192,-4.5,10.000000519927));
#267 = VECTOR('',#268,1.);
#268 = DIRECTION('',(-0.707106896726,0.,-0.707106665647));
#269 = ORIENTED_EDGE('',*,*,#270,.F.);
#270 = EDGE_CURVE('',#271,#263,#273,.T.);
#271 = VERTEX_POINT('',#272);
#272 = CARTESIAN_POINT('',(10.,-4.5,10.000000519927));
#273 = LINE('',#274,#275);
#274 = CARTESIAN_POINT('',(10.,-4.5,10.000000519927));
#275 = VECTOR('',#276,1.);
#276 = DIRECTION('',(-1.,0.,0.));
#277 = ORIENTED_EDGE('',*,*,#278,.F.);
#278 = EDGE_CURVE('',#279,#271,#281,.T.);
#279 = VERTEX_POINT('',#280);
#280 = CARTESIAN_POINT('',(10.,-4.5,4.499999970265));
#281 = LINE('',#282,#283);
#282 = CARTESIAN_POINT('',(10.,-4.5,4.499999970265));
#283 = VECTOR('',#284,1.);
#284 = DIRECTION('',(0.,0.,1.));
#285 = ORIENTED_EDGE('',*,*,#286,.F.);
#286 = EDGE_CURVE('',#287,#279,#289,.T.);
#287 = VERTEX_POINT('',#288);
#288 = CARTESIAN_POINT('',(8.5,-4.5,2.999999480072));
#289 = LINE('',#290,#291);
#290 = CARTESIAN_POINT('',(8.5,-4.5,2.999999480072));
#291 = VECTOR('',#292,1.);
#292 = DIRECTION('',(0.707106665647,0.,0.707106896726));
#293 = ORIENTED_EDGE('',*,*,#294,.F.);
#294 = EDGE_CURVE('',#295,#287,#297,.T.);
#295 = VERTEX_POINT('',#296);
#296 = CARTESIAN_POINT('',(8.5,-4.5,4.499999970265));
#297 = LINE('',#298,#299);
#298 = CARTESIAN_POINT('',(8.5,-4.5,4.499999970265));
#299 = VECTOR('',#300,1.);
#300 = DIRECTION('',(0.,0.,-1.));
#301 = ORIENTED_EDGE('',*,*,#302,.F.);
#302 = EDGE_CURVE('',#303,#295,#305,.T.);
#303 = VERTEX_POINT('',#304);
#304 = CARTESIAN_POINT('',(5.560660142045,-4.5,4.499999970265));
#305 = LINE('',#306,#307);
#306 = CARTESIAN_POINT('',(5.560660142045,-4.5,4.499999970265));
#307 = VECTOR('',#308,1.);
#308 = DIRECTION('',(1.,0.,0.));
#309 = ORIENTED_EDGE('',*,*,#310,.T.);
#310 = EDGE_CURVE('',#303,#311,#313,.T.);
#311 = VERTEX_POINT('',#312);
#312 = CARTESIAN_POINT('',(4.5,-4.5,3.439339481602));
#313 = LINE('',#314,#315);
#314 = CARTESIAN_POINT('',(5.560660142045,-4.5,4.499999970265));
#315 = VECTOR('',#316,1.);
#316 = DIRECTION('',(-0.707106665647,0.,-0.707106896726));
#317 = ORIENTED_EDGE('',*,*,#318,.F.);
#318 = EDGE_CURVE('',#319,#311,#321,.T.);
#319 = VERTEX_POINT('',#320);
#320 = CARTESIAN_POINT('',(4.5,-4.5,-3.439339481602));
#321 = LINE('',#322,#323);
#322 = CARTESIAN_POINT('',(4.5,-4.5,-4.5));
#323 = VECTOR('',#324,1.);
#324 = DIRECTION('',(0.,0.,1.));
#325 = ORIENTED_EDGE('',*,*,#326,.T.);
#326 = EDGE_CURVE('',#319,#327,#329,.T.);
#327 = VERTEX_POINT('',#328);
#328 = CARTESIAN_POINT('',(5.560660661972,-4.5,-4.500000490192));
#329 = LINE('',#330,#331);
#330 = CARTESIAN_POINT('',(4.5,-4.5,-3.439339481602));
#331 = VECTOR('',#332,1.);
#332 = DIRECTION('',(0.707106665647,-0.,-0.707106896726));
#333 = ORIENTED_EDGE('',*,*,#334,.F.);
#334 = EDGE_CURVE('',#335,#327,#337,.T.);
#335 = VERTEX_POINT('',#336);
#336 = CARTESIAN_POINT('',(8.500000519927,-4.5,-4.500000490192));
#337 = LINE('',#338,#339);
#338 = CARTESIAN_POINT('',(8.500000519927,-4.5,-4.500000490192));
#339 = VECTOR('',#340,1.);
#340 = DIRECTION('',(-1.,0.,0.));
#341 = ORIENTED_EDGE('',*,*,#342,.T.);
#342 = EDGE_CURVE('',#335,#343,#345,.T.);
#343 = VERTEX_POINT('',#344);
#344 = CARTESIAN_POINT('',(8.500000519927,-4.5,-3.));
#345 = LINE('',#346,#347);
#346 = CARTESIAN_POINT('',(8.500000519927,-4.5,-4.500000490192));
#347 = VECTOR('',#348,1.);
#348 = DIRECTION('',(0.,0.,1.));
#349 = ORIENTED_EDGE('',*,*,#350,.F.);
#350 = EDGE_CURVE('',#351,#343,#353,.T.);
#351 = VERTEX_POINT('',#352);
#352 = CARTESIAN_POINT('',(10.000000519927,-4.5,-4.500000490192));
#353 = LINE('',#354,#355);
#354 = CARTESIAN_POINT('',(10.000000519927,-4.5,-4.500000490192));
#355 = VECTOR('',#356,1.);
#356 = DIRECTION('',(-0.707106665647,0.,0.707106896726));
#357 = ORIENTED_EDGE('',*,*,#358,.F.);
#358 = EDGE_CURVE('',#359,#351,#361,.T.);
#359 = VERTEX_POINT('',#360);
#360 = CARTESIAN_POINT('',(10.000000519927,-4.5,-10.));
#361 = LINE('',#362,#363);
#362 = CARTESIAN_POINT('',(10.000000519927,-4.5,-10.));
#363 = VECTOR('',#364,1.);
#364 = DIRECTION('',(0.,0.,1.));
#365 = ORIENTED_EDGE('',*,*,#366,.F.);
#366 = EDGE_CURVE('',#367,#359,#369,.T.);
#367 = VERTEX_POINT('',#368);
#368 = CARTESIAN_POINT('',(4.499999970265,-4.5,-10.));
#369 = LINE('',#370,#371);
#370 = CARTESIAN_POINT('',(4.499999970265,-4.5,-10.));
#371 = VECTOR('',#372,1.);
#372 = DIRECTION('',(1.,0.,0.));
#373 = ORIENTED_EDGE('',*,*,#374,.F.);
#374 = EDGE_CURVE('',#375,#367,#377,.T.);
#375 = VERTEX_POINT('',#376);
#376 = CARTESIAN_POINT('',(2.999999480072,-4.5,-8.5));
#377 = LINE('',#378,#379);
#378 = CARTESIAN_POINT('',(2.999999480072,-4.5,-8.5));
#379 = VECTOR('',#380,1.);
#380 = DIRECTION('',(0.707106896726,-0.,-0.707106665647));
#381 = ORIENTED_EDGE('',*,*,#382,.F.);
#382 = EDGE_CURVE('',#383,#375,#385,.T.);
#383 = VERTEX_POINT('',#384);
#384 = CARTESIAN_POINT('',(4.499999970265,-4.5,-8.5));
#385 = LINE('',#386,#387);
#386 = CARTESIAN_POINT('',(4.499999970265,-4.5,-8.5));
#387 = VECTOR('',#388,1.);
#388 = DIRECTION('',(-1.,0.,0.));
#389 = ORIENTED_EDGE('',*,*,#390,.F.);
#390 = EDGE_CURVE('',#391,#383,#393,.T.);
#391 = VERTEX_POINT('',#392);
#392 = CARTESIAN_POINT('',(4.499999970265,-4.5,-5.560660142045));
#393 = LINE('',#394,#395);
#394 = CARTESIAN_POINT('',(4.499999970265,-4.5,-5.560660142045));
#395 = VECTOR('',#396,1.);
#396 = DIRECTION('',(0.,0.,-1.));
#397 = ORIENTED_EDGE('',*,*,#398,.T.);
#398 = EDGE_CURVE('',#391,#64,#399,.T.);
#399 = LINE('',#400,#401);
#400 = CARTESIAN_POINT('',(4.499999970265,-4.5,-5.560660142045));
#401 = VECTOR('',#402,1.);
#402 = DIRECTION('',(-0.707106896726,0.,0.707106665647));
#403 = FACE_BOUND('',#404,.T.);
#404 = EDGE_LOOP('',(#405));
#405 = ORIENTED_EDGE('',*,*,#406,.F.);
#406 = EDGE_CURVE('',#407,#407,#409,.T.);
#407 = VERTEX_POINT('',#408);
#408 = CARTESIAN_POINT('',(2.75,-4.5,0.));
#409 = CIRCLE('',#410,2.75);
#410 = AXIS2_PLACEMENT_3D('',#411,#412,#413);
#411 = CARTESIAN_POINT('',(0.,-4.5,0.));
#412 = DIRECTION('',(-0.,1.,0.));
#413 = DIRECTION('',(1.,0.,0.));
#414 = PLANE('',#415);
#415 = AXIS2_PLACEMENT_3D('',#416,#417,#418);
#416 = CARTESIAN_POINT('',(7.6E-16,-4.5,2.E-17));
#417 = DIRECTION('',(0.,1.,0.));
#418 = DIRECTION('',(-1.,0.,0.));
#419 = ADVANCED_FACE('',(#420),#438,.T.);
#420 = FACE_BOUND('',#421,.T.);
#421 = EDGE_LOOP('',(#422,#430,#436,#437));
#422 = ORIENTED_EDGE('',*,*,#423,.T.);
#423 = EDGE_CURVE('',#136,#424,#426,.T.);
#424 = VERTEX_POINT('',#425);
#425 = CARTESIAN_POINT('',(-5.560660142045,-224.5,-4.499999970265));
#426 = LINE('',#427,#428);
#427 = CARTESIAN_POINT('',(-5.560660142045,-4.5,-4.499999970265));
#428 = VECTOR('',#429,1.);
#429 = DIRECTION('',(0.,-1.,1.1E-16));
#430 = ORIENTED_EDGE('',*,*,#431,.T.);
#431 = EDGE_CURVE('',#424,#40,#432,.T.);
#432 = LINE('',#433,#434);
#433 = CARTESIAN_POINT('',(-5.560660142045,-224.5,-4.499999970265));
#434 = VECTOR('',#435,1.);
#435 = DIRECTION('',(0.707106665647,0.,0.707106896726));
#436 = ORIENTED_EDGE('',*,*,#47,.F.);
#437 = ORIENTED_EDGE('',*,*,#143,.F.);
#438 = PLANE('',#439);
#439 = AXIS2_PLACEMENT_3D('',#440,#441,#442);
#440 = CARTESIAN_POINT('',(-5.560660142045,-4.5,-4.499999970265));
#441 = DIRECTION('',(-0.707106896726,8.E-17,0.707106665647));
#442 = DIRECTION('',(0.707106665647,8.E-17,0.707106896726));
#443 = ADVANCED_FACE('',(#444,#782),#793,.T.);
#444 = FACE_BOUND('',#445,.T.);
#445 = EDGE_LOOP('',(#446,#456,#464,#472,#480,#488,#496,#504,#512,#520,
    #528,#536,#544,#552,#560,#568,#576,#584,#592,#600,#608,#616,#624,
    #632,#640,#648,#656,#664,#672,#680,#688,#696,#704,#710,#711,#712,
    #720,#728,#736,#744,#752,#760,#768,#776));
#446 = ORIENTED_EDGE('',*,*,#447,.T.);
#447 = EDGE_CURVE('',#448,#450,#452,.T.);
#448 = VERTEX_POINT('',#449);
#449 = CARTESIAN_POINT('',(-3.439339481602,-224.5,-4.5));
#450 = VERTEX_POINT('',#451);
#451 = CARTESIAN_POINT('',(3.439339481602,-224.5,-4.5));
#452 = LINE('',#453,#454);
#453 = CARTESIAN_POINT('',(-3.439339481602,-224.5,-4.5));
#454 = VECTOR('',#455,1.);
#455 = DIRECTION('',(1.,0.,0.));
#456 = ORIENTED_EDGE('',*,*,#457,.F.);
#457 = EDGE_CURVE('',#458,#450,#460,.T.);
#458 = VERTEX_POINT('',#459);
#459 = CARTESIAN_POINT('',(4.499999970265,-224.5,-5.560660142045));
#460 = LINE('',#461,#462);
#461 = CARTESIAN_POINT('',(4.499999970265,-224.5,-5.560660142045));
#462 = VECTOR('',#463,1.);
#463 = DIRECTION('',(-0.707106896726,0.,0.707106665647));
#464 = ORIENTED_EDGE('',*,*,#465,.T.);
#465 = EDGE_CURVE('',#458,#466,#468,.T.);
#466 = VERTEX_POINT('',#467);
#467 = CARTESIAN_POINT('',(4.499999970265,-224.5,-8.5));
#468 = LINE('',#469,#470);
#469 = CARTESIAN_POINT('',(4.499999970265,-224.5,-5.560660142045));
#470 = VECTOR('',#471,1.);
#471 = DIRECTION('',(0.,0.,-1.));
#472 = ORIENTED_EDGE('',*,*,#473,.T.);
#473 = EDGE_CURVE('',#466,#474,#476,.T.);
#474 = VERTEX_POINT('',#475);
#475 = CARTESIAN_POINT('',(2.999999480072,-224.5,-8.5));
#476 = LINE('',#477,#478);
#477 = CARTESIAN_POINT('',(4.499999970265,-224.5,-8.5));
#478 = VECTOR('',#479,1.);
#479 = DIRECTION('',(-1.,0.,0.));
#480 = ORIENTED_EDGE('',*,*,#481,.T.);
#481 = EDGE_CURVE('',#474,#482,#484,.T.);
#482 = VERTEX_POINT('',#483);
#483 = CARTESIAN_POINT('',(4.499999970265,-224.5,-10.));
#484 = LINE('',#485,#486);
#485 = CARTESIAN_POINT('',(2.999999480072,-224.5,-8.5));
#486 = VECTOR('',#487,1.);
#487 = DIRECTION('',(0.707106896726,-0.,-0.707106665647));
#488 = ORIENTED_EDGE('',*,*,#489,.T.);
#489 = EDGE_CURVE('',#482,#490,#492,.T.);
#490 = VERTEX_POINT('',#491);
#491 = CARTESIAN_POINT('',(10.000000519927,-224.5,-10.));
#492 = LINE('',#493,#494);
#493 = CARTESIAN_POINT('',(4.499999970265,-224.5,-10.));
#494 = VECTOR('',#495,1.);
#495 = DIRECTION('',(1.,0.,0.));
#496 = ORIENTED_EDGE('',*,*,#497,.T.);
#497 = EDGE_CURVE('',#490,#498,#500,.T.);
#498 = VERTEX_POINT('',#499);
#499 = CARTESIAN_POINT('',(10.000000519927,-224.5,-4.500000490192));
#500 = LINE('',#501,#502);
#501 = CARTESIAN_POINT('',(10.000000519927,-224.5,-10.));
#502 = VECTOR('',#503,1.);
#503 = DIRECTION('',(0.,0.,1.));
#504 = ORIENTED_EDGE('',*,*,#505,.T.);
#505 = EDGE_CURVE('',#498,#506,#508,.T.);
#506 = VERTEX_POINT('',#507);
#507 = CARTESIAN_POINT('',(8.500000519927,-224.5,-3.));
#508 = LINE('',#509,#510);
#509 = CARTESIAN_POINT('',(10.000000519927,-224.5,-4.500000490192));
#510 = VECTOR('',#511,1.);
#511 = DIRECTION('',(-0.707106665647,0.,0.707106896726));
#512 = ORIENTED_EDGE('',*,*,#513,.F.);
#513 = EDGE_CURVE('',#514,#506,#516,.T.);
#514 = VERTEX_POINT('',#515);
#515 = CARTESIAN_POINT('',(8.500000519927,-224.5,-4.500000490192));
#516 = LINE('',#517,#518);
#517 = CARTESIAN_POINT('',(8.500000519927,-224.5,-4.500000490192));
#518 = VECTOR('',#519,1.);
#519 = DIRECTION('',(0.,0.,1.));
#520 = ORIENTED_EDGE('',*,*,#521,.T.);
#521 = EDGE_CURVE('',#514,#522,#524,.T.);
#522 = VERTEX_POINT('',#523);
#523 = CARTESIAN_POINT('',(5.560660661972,-224.5,-4.500000490192));
#524 = LINE('',#525,#526);
#525 = CARTESIAN_POINT('',(8.500000519927,-224.5,-4.500000490192));
#526 = VECTOR('',#527,1.);
#527 = DIRECTION('',(-1.,0.,0.));
#528 = ORIENTED_EDGE('',*,*,#529,.F.);
#529 = EDGE_CURVE('',#530,#522,#532,.T.);
#530 = VERTEX_POINT('',#531);
#531 = CARTESIAN_POINT('',(4.5,-224.5,-3.439339481602));
#532 = LINE('',#533,#534);
#533 = CARTESIAN_POINT('',(4.5,-224.5,-3.439339481602));
#534 = VECTOR('',#535,1.);
#535 = DIRECTION('',(0.707106665647,-0.,-0.707106896726));
#536 = ORIENTED_EDGE('',*,*,#537,.T.);
#537 = EDGE_CURVE('',#530,#538,#540,.T.);
#538 = VERTEX_POINT('',#539);
#539 = CARTESIAN_POINT('',(4.5,-224.5,3.439339481602));
#540 = LINE('',#541,#542);
#541 = CARTESIAN_POINT('',(4.5,-224.5,-4.5));
#542 = VECTOR('',#543,1.);
#543 = DIRECTION('',(0.,0.,1.));
#544 = ORIENTED_EDGE('',*,*,#545,.F.);
#545 = EDGE_CURVE('',#546,#538,#548,.T.);
#546 = VERTEX_POINT('',#547);
#547 = CARTESIAN_POINT('',(5.560660142045,-224.5,4.499999970265));
#548 = LINE('',#549,#550);
#549 = CARTESIAN_POINT('',(5.560660142045,-224.5,4.499999970265));
#550 = VECTOR('',#551,1.);
#551 = DIRECTION('',(-0.707106665647,0.,-0.707106896726));
#552 = ORIENTED_EDGE('',*,*,#553,.T.);
#553 = EDGE_CURVE('',#546,#554,#556,.T.);
#554 = VERTEX_POINT('',#555);
#555 = CARTESIAN_POINT('',(8.5,-224.5,4.499999970265));
#556 = LINE('',#557,#558);
#557 = CARTESIAN_POINT('',(5.560660142045,-224.5,4.499999970265));
#558 = VECTOR('',#559,1.);
#559 = DIRECTION('',(1.,0.,0.));
#560 = ORIENTED_EDGE('',*,*,#561,.T.);
#561 = EDGE_CURVE('',#554,#562,#564,.T.);
#562 = VERTEX_POINT('',#563);
#563 = CARTESIAN_POINT('',(8.5,-224.5,2.999999480072));
#564 = LINE('',#565,#566);
#565 = CARTESIAN_POINT('',(8.5,-224.5,4.499999970265));
#566 = VECTOR('',#567,1.);
#567 = DIRECTION('',(0.,0.,-1.));
#568 = ORIENTED_EDGE('',*,*,#569,.T.);
#569 = EDGE_CURVE('',#562,#570,#572,.T.);
#570 = VERTEX_POINT('',#571);
#571 = CARTESIAN_POINT('',(10.,-224.5,4.499999970265));
#572 = LINE('',#573,#574);
#573 = CARTESIAN_POINT('',(8.5,-224.5,2.999999480072));
#574 = VECTOR('',#575,1.);
#575 = DIRECTION('',(0.707106665647,0.,0.707106896726));
#576 = ORIENTED_EDGE('',*,*,#577,.T.);
#577 = EDGE_CURVE('',#570,#578,#580,.T.);
#578 = VERTEX_POINT('',#579);
#579 = CARTESIAN_POINT('',(10.,-224.5,10.000000519927));
#580 = LINE('',#581,#582);
#581 = CARTESIAN_POINT('',(10.,-224.5,4.499999970265));
#582 = VECTOR('',#583,1.);
#583 = DIRECTION('',(0.,0.,1.));
#584 = ORIENTED_EDGE('',*,*,#585,.T.);
#585 = EDGE_CURVE('',#578,#586,#588,.T.);
#586 = VERTEX_POINT('',#587);
#587 = CARTESIAN_POINT('',(4.500000490192,-224.5,10.000000519927));
#588 = LINE('',#589,#590);
#589 = CARTESIAN_POINT('',(10.,-224.5,10.000000519927));
#590 = VECTOR('',#591,1.);
#591 = DIRECTION('',(-1.,0.,0.));
#592 = ORIENTED_EDGE('',*,*,#593,.T.);
#593 = EDGE_CURVE('',#586,#594,#596,.T.);
#594 = VERTEX_POINT('',#595);
#595 = CARTESIAN_POINT('',(3.,-224.5,8.500000519927));
#596 = LINE('',#597,#598);
#597 = CARTESIAN_POINT('',(4.500000490192,-224.5,10.000000519927));
#598 = VECTOR('',#599,1.);
#599 = DIRECTION('',(-0.707106896726,0.,-0.707106665647));
#600 = ORIENTED_EDGE('',*,*,#601,.F.);
#601 = EDGE_CURVE('',#602,#594,#604,.T.);
#602 = VERTEX_POINT('',#603);
#603 = CARTESIAN_POINT('',(4.500000490192,-224.5,8.500000519927));
#604 = LINE('',#605,#606);
#605 = CARTESIAN_POINT('',(4.500000490192,-224.5,8.500000519927));
#606 = VECTOR('',#607,1.);
#607 = DIRECTION('',(-1.,0.,0.));
#608 = ORIENTED_EDGE('',*,*,#609,.T.);
#609 = EDGE_CURVE('',#602,#610,#612,.T.);
#610 = VERTEX_POINT('',#611);
#611 = CARTESIAN_POINT('',(4.500000490192,-224.5,5.560660661972));
#612 = LINE('',#613,#614);
#613 = CARTESIAN_POINT('',(4.500000490192,-224.5,8.500000519927));
#614 = VECTOR('',#615,1.);
#615 = DIRECTION('',(0.,0.,-1.));
#616 = ORIENTED_EDGE('',*,*,#617,.F.);
#617 = EDGE_CURVE('',#618,#610,#620,.T.);
#618 = VERTEX_POINT('',#619);
#619 = CARTESIAN_POINT('',(3.439339481602,-224.5,4.5));
#620 = LINE('',#621,#622);
#621 = CARTESIAN_POINT('',(3.439339481602,-224.5,4.5));
#622 = VECTOR('',#623,1.);
#623 = DIRECTION('',(0.707106896726,0.,0.707106665647));
#624 = ORIENTED_EDGE('',*,*,#625,.T.);
#625 = EDGE_CURVE('',#618,#626,#628,.T.);
#626 = VERTEX_POINT('',#627);
#627 = CARTESIAN_POINT('',(-3.439339481602,-224.5,4.5));
#628 = LINE('',#629,#630);
#629 = CARTESIAN_POINT('',(4.5,-224.5,4.5));
#630 = VECTOR('',#631,1.);
#631 = DIRECTION('',(-1.,0.,0.));
#632 = ORIENTED_EDGE('',*,*,#633,.F.);
#633 = EDGE_CURVE('',#634,#626,#636,.T.);
#634 = VERTEX_POINT('',#635);
#635 = CARTESIAN_POINT('',(-4.499999970265,-224.5,5.560660142045));
#636 = LINE('',#637,#638);
#637 = CARTESIAN_POINT('',(-4.499999970265,-224.5,5.560660142045));
#638 = VECTOR('',#639,1.);
#639 = DIRECTION('',(0.707106896726,0.,-0.707106665647));
#640 = ORIENTED_EDGE('',*,*,#641,.T.);
#641 = EDGE_CURVE('',#634,#642,#644,.T.);
#642 = VERTEX_POINT('',#643);
#643 = CARTESIAN_POINT('',(-4.499999970265,-224.5,8.5));
#644 = LINE('',#645,#646);
#645 = CARTESIAN_POINT('',(-4.499999970265,-224.5,5.560660142045));
#646 = VECTOR('',#647,1.);
#647 = DIRECTION('',(0.,0.,1.));
#648 = ORIENTED_EDGE('',*,*,#649,.T.);
#649 = EDGE_CURVE('',#642,#650,#652,.T.);
#650 = VERTEX_POINT('',#651);
#651 = CARTESIAN_POINT('',(-2.999999480072,-224.5,8.5));
#652 = LINE('',#653,#654);
#653 = CARTESIAN_POINT('',(-4.499999970265,-224.5,8.5));
#654 = VECTOR('',#655,1.);
#655 = DIRECTION('',(1.,0.,0.));
#656 = ORIENTED_EDGE('',*,*,#657,.T.);
#657 = EDGE_CURVE('',#650,#658,#660,.T.);
#658 = VERTEX_POINT('',#659);
#659 = CARTESIAN_POINT('',(-4.499999970265,-224.5,10.));
#660 = LINE('',#661,#662);
#661 = CARTESIAN_POINT('',(-2.999999480072,-224.5,8.5));
#662 = VECTOR('',#663,1.);
#663 = DIRECTION('',(-0.707106896726,0.,0.707106665647));
#664 = ORIENTED_EDGE('',*,*,#665,.T.);
#665 = EDGE_CURVE('',#658,#666,#668,.T.);
#666 = VERTEX_POINT('',#667);
#667 = CARTESIAN_POINT('',(-10.00000051992,-224.5,10.));
#668 = LINE('',#669,#670);
#669 = CARTESIAN_POINT('',(-4.499999970265,-224.5,10.));
#670 = VECTOR('',#671,1.);
#671 = DIRECTION('',(-1.,0.,0.));
#672 = ORIENTED_EDGE('',*,*,#673,.T.);
#673 = EDGE_CURVE('',#666,#674,#676,.T.);
#674 = VERTEX_POINT('',#675);
#675 = CARTESIAN_POINT('',(-10.00000051992,-224.5,4.500000490192));
#676 = LINE('',#677,#678);
#677 = CARTESIAN_POINT('',(-10.00000051992,-224.5,10.));
#678 = VECTOR('',#679,1.);
#679 = DIRECTION('',(0.,0.,-1.));
#680 = ORIENTED_EDGE('',*,*,#681,.T.);
#681 = EDGE_CURVE('',#674,#682,#684,.T.);
#682 = VERTEX_POINT('',#683);
#683 = CARTESIAN_POINT('',(-8.500000519927,-224.5,3.));
#684 = LINE('',#685,#686);
#685 = CARTESIAN_POINT('',(-10.00000051992,-224.5,4.500000490192));
#686 = VECTOR('',#687,1.);
#687 = DIRECTION('',(0.707106665647,0.,-0.707106896726));
#688 = ORIENTED_EDGE('',*,*,#689,.F.);
#689 = EDGE_CURVE('',#690,#682,#692,.T.);
#690 = VERTEX_POINT('',#691);
#691 = CARTESIAN_POINT('',(-8.500000519927,-224.5,4.500000490192));
#692 = LINE('',#693,#694);
#693 = CARTESIAN_POINT('',(-8.500000519927,-224.5,4.500000490192));
#694 = VECTOR('',#695,1.);
#695 = DIRECTION('',(0.,0.,-1.));
#696 = ORIENTED_EDGE('',*,*,#697,.T.);
#697 = EDGE_CURVE('',#690,#698,#700,.T.);
#698 = VERTEX_POINT('',#699);
#699 = CARTESIAN_POINT('',(-5.560660661972,-224.5,4.500000490192));
#700 = LINE('',#701,#702);
#701 = CARTESIAN_POINT('',(-8.500000519927,-224.5,4.500000490192));
#702 = VECTOR('',#703,1.);
#703 = DIRECTION('',(1.,0.,0.));
#704 = ORIENTED_EDGE('',*,*,#705,.F.);
#705 = EDGE_CURVE('',#32,#698,#706,.T.);
#706 = LINE('',#707,#708);
#707 = CARTESIAN_POINT('',(-4.5,-224.5,3.439339481602));
#708 = VECTOR('',#709,1.);
#709 = DIRECTION('',(-0.707106665647,0.,0.707106896726));
#710 = ORIENTED_EDGE('',*,*,#39,.T.);
#711 = ORIENTED_EDGE('',*,*,#431,.F.);
#712 = ORIENTED_EDGE('',*,*,#713,.T.);
#713 = EDGE_CURVE('',#424,#714,#716,.T.);
#714 = VERTEX_POINT('',#715);
#715 = CARTESIAN_POINT('',(-8.5,-224.5,-4.499999970265));
#716 = LINE('',#717,#718);
#717 = CARTESIAN_POINT('',(-5.560660142045,-224.5,-4.499999970265));
#718 = VECTOR('',#719,1.);
#719 = DIRECTION('',(-1.,0.,0.));
#720 = ORIENTED_EDGE('',*,*,#721,.T.);
#721 = EDGE_CURVE('',#714,#722,#724,.T.);
#722 = VERTEX_POINT('',#723);
#723 = CARTESIAN_POINT('',(-8.5,-224.5,-2.999999480072));
#724 = LINE('',#725,#726);
#725 = CARTESIAN_POINT('',(-8.5,-224.5,-4.499999970265));
#726 = VECTOR('',#727,1.);
#727 = DIRECTION('',(0.,0.,1.));
#728 = ORIENTED_EDGE('',*,*,#729,.T.);
#729 = EDGE_CURVE('',#722,#730,#732,.T.);
#730 = VERTEX_POINT('',#731);
#731 = CARTESIAN_POINT('',(-10.,-224.5,-4.499999970265));
#732 = LINE('',#733,#734);
#733 = CARTESIAN_POINT('',(-8.5,-224.5,-2.999999480072));
#734 = VECTOR('',#735,1.);
#735 = DIRECTION('',(-0.707106665647,-0.,-0.707106896726));
#736 = ORIENTED_EDGE('',*,*,#737,.T.);
#737 = EDGE_CURVE('',#730,#738,#740,.T.);
#738 = VERTEX_POINT('',#739);
#739 = CARTESIAN_POINT('',(-10.,-224.5,-10.00000051992));
#740 = LINE('',#741,#742);
#741 = CARTESIAN_POINT('',(-10.,-224.5,-4.499999970265));
#742 = VECTOR('',#743,1.);
#743 = DIRECTION('',(0.,0.,-1.));
#744 = ORIENTED_EDGE('',*,*,#745,.T.);
#745 = EDGE_CURVE('',#738,#746,#748,.T.);
#746 = VERTEX_POINT('',#747);
#747 = CARTESIAN_POINT('',(-4.500000490192,-224.5,-10.00000051992));
#748 = LINE('',#749,#750);
#749 = CARTESIAN_POINT('',(-10.,-224.5,-10.00000051992));
#750 = VECTOR('',#751,1.);
#751 = DIRECTION('',(1.,0.,0.));
#752 = ORIENTED_EDGE('',*,*,#753,.T.);
#753 = EDGE_CURVE('',#746,#754,#756,.T.);
#754 = VERTEX_POINT('',#755);
#755 = CARTESIAN_POINT('',(-3.,-224.5,-8.500000519927));
#756 = LINE('',#757,#758);
#757 = CARTESIAN_POINT('',(-4.500000490192,-224.5,-10.00000051992));
#758 = VECTOR('',#759,1.);
#759 = DIRECTION('',(0.707106896726,0.,0.707106665647));
#760 = ORIENTED_EDGE('',*,*,#761,.F.);
#761 = EDGE_CURVE('',#762,#754,#764,.T.);
#762 = VERTEX_POINT('',#763);
#763 = CARTESIAN_POINT('',(-4.500000490192,-224.5,-8.500000519927));
#764 = LINE('',#765,#766);
#765 = CARTESIAN_POINT('',(-4.500000490192,-224.5,-8.500000519927));
#766 = VECTOR('',#767,1.);
#767 = DIRECTION('',(1.,0.,0.));
#768 = ORIENTED_EDGE('',*,*,#769,.T.);
#769 = EDGE_CURVE('',#762,#770,#772,.T.);
#770 = VERTEX_POINT('',#771);
#771 = CARTESIAN_POINT('',(-4.500000490192,-224.5,-5.560660661972));
#772 = LINE('',#773,#774);
#773 = CARTESIAN_POINT('',(-4.500000490192,-224.5,-8.500000519927));
#774 = VECTOR('',#775,1.);
#775 = DIRECTION('',(0.,0.,1.));
#776 = ORIENTED_EDGE('',*,*,#777,.F.);
#777 = EDGE_CURVE('',#448,#770,#778,.T.);
#778 = LINE('',#779,#780);
#779 = CARTESIAN_POINT('',(-3.439339481602,-224.5,-4.5));
#780 = VECTOR('',#781,1.);
#781 = DIRECTION('',(-0.707106896726,-0.,-0.707106665647));
#782 = FACE_BOUND('',#783,.T.);
#783 = EDGE_LOOP('',(#784));
#784 = ORIENTED_EDGE('',*,*,#785,.T.);
#785 = EDGE_CURVE('',#786,#786,#788,.T.);
#786 = VERTEX_POINT('',#787);
#787 = CARTESIAN_POINT('',(2.75,-224.5,-7.283063041541E-14));
#788 = CIRCLE('',#789,2.75);
#789 = AXIS2_PLACEMENT_3D('',#790,#791,#792);
#790 = CARTESIAN_POINT('',(0.,-224.5,-7.327E-14));
#791 = DIRECTION('',(-0.,1.,3.3E-16));
#792 = DIRECTION('',(1.,0.,0.));
#793 = PLANE('',#794);
#794 = AXIS2_PLACEMENT_3D('',#795,#796,#797);
#795 = CARTESIAN_POINT('',(1.27E-15,-224.5,3.054E-14));
#796 = DIRECTION('',(0.,-1.,0.));
#797 = DIRECTION('',(1.,0.,0.));
#798 = ADVANCED_FACE('',(#799),#810,.T.);
#799 = FACE_BOUND('',#800,.T.);
#800 = EDGE_LOOP('',(#801,#802,#803,#809));
#801 = ORIENTED_EDGE('',*,*,#31,.T.);
#802 = ORIENTED_EDGE('',*,*,#705,.T.);
#803 = ORIENTED_EDGE('',*,*,#804,.F.);
#804 = EDGE_CURVE('',#151,#698,#805,.T.);
#805 = LINE('',#806,#807);
#806 = CARTESIAN_POINT('',(-5.560660661972,-4.5,4.500000490192));
#807 = VECTOR('',#808,1.);
#808 = DIRECTION('',(1.1E-16,-1.,0.));
#809 = ORIENTED_EDGE('',*,*,#150,.F.);
#810 = PLANE('',#811);
#811 = AXIS2_PLACEMENT_3D('',#812,#813,#814);
#812 = CARTESIAN_POINT('',(-4.5,-4.5,3.439339481602));
#813 = DIRECTION('',(-0.707106896726,-8.E-17,-0.707106665647));
#814 = DIRECTION('',(-0.707106665647,-8.E-17,0.707106896726));
#815 = ADVANCED_FACE('',(#816),#832,.F.);
#816 = FACE_BOUND('',#817,.F.);
#817 = EDGE_LOOP('',(#818,#819,#825,#826));
#818 = ORIENTED_EDGE('',*,*,#61,.F.);
#819 = ORIENTED_EDGE('',*,*,#820,.T.);
#820 = EDGE_CURVE('',#62,#448,#821,.T.);
#821 = LINE('',#822,#823);
#822 = CARTESIAN_POINT('',(-3.439339481602,-4.5,-4.5));
#823 = VECTOR('',#824,1.);
#824 = DIRECTION('',(0.,-1.,1.1E-16));
#825 = ORIENTED_EDGE('',*,*,#447,.T.);
#826 = ORIENTED_EDGE('',*,*,#827,.F.);
#827 = EDGE_CURVE('',#64,#450,#828,.T.);
#828 = LINE('',#829,#830);
#829 = CARTESIAN_POINT('',(3.439339481602,-4.5,-4.5));
#830 = VECTOR('',#831,1.);
#831 = DIRECTION('',(-1.1E-16,-1.,0.));
#832 = PLANE('',#833);
#833 = AXIS2_PLACEMENT_3D('',#834,#835,#836);
#834 = CARTESIAN_POINT('',(-3.439339481602,-4.5,-4.5));
#835 = DIRECTION('',(0.,1.1E-16,1.));
#836 = DIRECTION('',(1.,0.,0.));
#837 = ADVANCED_FACE('',(#838),#849,.T.);
#838 = FACE_BOUND('',#839,.T.);
#839 = EDGE_LOOP('',(#840,#841,#842,#848));
#840 = ORIENTED_EDGE('',*,*,#820,.T.);
#841 = ORIENTED_EDGE('',*,*,#777,.T.);
#842 = ORIENTED_EDGE('',*,*,#843,.F.);
#843 = EDGE_CURVE('',#72,#770,#844,.T.);
#844 = LINE('',#845,#846);
#845 = CARTESIAN_POINT('',(-4.500000490192,-4.5,-5.560660661972));
#846 = VECTOR('',#847,1.);
#847 = DIRECTION('',(0.,-1.,1.1E-16));
#848 = ORIENTED_EDGE('',*,*,#71,.F.);
#849 = PLANE('',#850);
#850 = AXIS2_PLACEMENT_3D('',#851,#852,#853);
#851 = CARTESIAN_POINT('',(-3.439339481602,-4.5,-4.5));
#852 = DIRECTION('',(0.707106665647,-8.E-17,-0.707106896726));
#853 = DIRECTION('',(-0.707106896726,-8.E-17,-0.707106665647));
#854 = ADVANCED_FACE('',(#855),#866,.T.);
#855 = FACE_BOUND('',#856,.T.);
#856 = EDGE_LOOP('',(#857,#863,#864,#865));
#857 = ORIENTED_EDGE('',*,*,#858,.T.);
#858 = EDGE_CURVE('',#391,#458,#859,.T.);
#859 = LINE('',#860,#861);
#860 = CARTESIAN_POINT('',(4.499999970265,-4.5,-5.560660142045));
#861 = VECTOR('',#862,1.);
#862 = DIRECTION('',(-1.1E-16,-1.,0.));
#863 = ORIENTED_EDGE('',*,*,#457,.T.);
#864 = ORIENTED_EDGE('',*,*,#827,.F.);
#865 = ORIENTED_EDGE('',*,*,#398,.F.);
#866 = PLANE('',#867);
#867 = AXIS2_PLACEMENT_3D('',#868,#869,#870);
#868 = CARTESIAN_POINT('',(4.499999970265,-4.5,-5.560660142045));
#869 = DIRECTION('',(-0.707106665647,8.E-17,-0.707106896726));
#870 = DIRECTION('',(-0.707106896726,8.E-17,0.707106665647));
#871 = ADVANCED_FACE('',(#872),#883,.F.);
#872 = FACE_BOUND('',#873,.F.);
#873 = EDGE_LOOP('',(#874,#880,#881,#882));
#874 = ORIENTED_EDGE('',*,*,#875,.T.);
#875 = EDGE_CURVE('',#80,#762,#876,.T.);
#876 = LINE('',#877,#878);
#877 = CARTESIAN_POINT('',(-4.500000490192,-4.5,-8.500000519927));
#878 = VECTOR('',#879,1.);
#879 = DIRECTION('',(0.,-1.,1.1E-16));
#880 = ORIENTED_EDGE('',*,*,#769,.T.);
#881 = ORIENTED_EDGE('',*,*,#843,.F.);
#882 = ORIENTED_EDGE('',*,*,#79,.F.);
#883 = PLANE('',#884);
#884 = AXIS2_PLACEMENT_3D('',#885,#886,#887);
#885 = CARTESIAN_POINT('',(-4.500000490192,-4.5,-8.500000519927));
#886 = DIRECTION('',(-1.,0.,0.));
#887 = DIRECTION('',(0.,1.1E-16,1.));
#888 = ADVANCED_FACE('',(#889),#900,.F.);
#889 = FACE_BOUND('',#890,.F.);
#890 = EDGE_LOOP('',(#891,#892,#893,#899));
#891 = ORIENTED_EDGE('',*,*,#858,.T.);
#892 = ORIENTED_EDGE('',*,*,#465,.T.);
#893 = ORIENTED_EDGE('',*,*,#894,.F.);
#894 = EDGE_CURVE('',#383,#466,#895,.T.);
#895 = LINE('',#896,#897);
#896 = CARTESIAN_POINT('',(4.499999970265,-4.5,-8.5));
#897 = VECTOR('',#898,1.);
#898 = DIRECTION('',(-1.1E-16,-1.,0.));
#899 = ORIENTED_EDGE('',*,*,#390,.F.);
#900 = PLANE('',#901);
#901 = AXIS2_PLACEMENT_3D('',#902,#903,#904);
#902 = CARTESIAN_POINT('',(4.499999970265,-4.5,-5.560660142045));
#903 = DIRECTION('',(1.,-1.1E-16,0.));
#904 = DIRECTION('',(-0.,0.,-1.));
#905 = ADVANCED_FACE('',(#906),#917,.T.);
#906 = FACE_BOUND('',#907,.T.);
#907 = EDGE_LOOP('',(#908,#909,#910,#916));
#908 = ORIENTED_EDGE('',*,*,#875,.T.);
#909 = ORIENTED_EDGE('',*,*,#761,.T.);
#910 = ORIENTED_EDGE('',*,*,#911,.F.);
#911 = EDGE_CURVE('',#88,#754,#912,.T.);
#912 = LINE('',#913,#914);
#913 = CARTESIAN_POINT('',(-3.,-4.5,-8.500000519927));
#914 = VECTOR('',#915,1.);
#915 = DIRECTION('',(0.,-1.,1.1E-16));
#916 = ORIENTED_EDGE('',*,*,#87,.F.);
#917 = PLANE('',#918);
#918 = AXIS2_PLACEMENT_3D('',#919,#920,#921);
#919 = CARTESIAN_POINT('',(-4.500000490192,-4.5,-8.500000519927));
#920 = DIRECTION('',(0.,1.1E-16,1.));
#921 = DIRECTION('',(1.,0.,0.));
#922 = ADVANCED_FACE('',(#923),#934,.F.);
#923 = FACE_BOUND('',#924,.F.);
#924 = EDGE_LOOP('',(#925,#926,#927,#933));
#925 = ORIENTED_EDGE('',*,*,#894,.T.);
#926 = ORIENTED_EDGE('',*,*,#473,.T.);
#927 = ORIENTED_EDGE('',*,*,#928,.F.);
#928 = EDGE_CURVE('',#375,#474,#929,.T.);
#929 = LINE('',#930,#931);
#930 = CARTESIAN_POINT('',(2.999999480072,-4.5,-8.5));
#931 = VECTOR('',#932,1.);
#932 = DIRECTION('',(-1.1E-16,-1.,0.));
#933 = ORIENTED_EDGE('',*,*,#382,.F.);
#934 = PLANE('',#935);
#935 = AXIS2_PLACEMENT_3D('',#936,#937,#938);
#936 = CARTESIAN_POINT('',(4.499999970265,-4.5,-8.5));
#937 = DIRECTION('',(0.,0.,-1.));
#938 = DIRECTION('',(-1.,1.1E-16,0.));
#939 = ADVANCED_FACE('',(#940),#951,.F.);
#940 = FACE_BOUND('',#941,.F.);
#941 = EDGE_LOOP('',(#942,#948,#949,#950));
#942 = ORIENTED_EDGE('',*,*,#943,.T.);
#943 = EDGE_CURVE('',#96,#746,#944,.T.);
#944 = LINE('',#945,#946);
#945 = CARTESIAN_POINT('',(-4.500000490192,-4.5,-10.00000051992));
#946 = VECTOR('',#947,1.);
#947 = DIRECTION('',(0.,-1.,1.1E-16));
#948 = ORIENTED_EDGE('',*,*,#753,.T.);
#949 = ORIENTED_EDGE('',*,*,#911,.F.);
#950 = ORIENTED_EDGE('',*,*,#95,.F.);
#951 = PLANE('',#952);
#952 = AXIS2_PLACEMENT_3D('',#953,#954,#955);
#953 = CARTESIAN_POINT('',(-4.500000490192,-4.5,-10.00000051992));
#954 = DIRECTION('',(-0.707106665647,8.E-17,0.707106896726));
#955 = DIRECTION('',(0.707106896726,8.E-17,0.707106665647));
#956 = ADVANCED_FACE('',(#957),#968,.F.);
#957 = FACE_BOUND('',#958,.F.);
#958 = EDGE_LOOP('',(#959,#960,#961,#967));
#959 = ORIENTED_EDGE('',*,*,#928,.T.);
#960 = ORIENTED_EDGE('',*,*,#481,.T.);
#961 = ORIENTED_EDGE('',*,*,#962,.F.);
#962 = EDGE_CURVE('',#367,#482,#963,.T.);
#963 = LINE('',#964,#965);
#964 = CARTESIAN_POINT('',(4.499999970265,-4.5,-10.));
#965 = VECTOR('',#966,1.);
#966 = DIRECTION('',(-1.1E-16,-1.,0.));
#967 = ORIENTED_EDGE('',*,*,#374,.F.);
#968 = PLANE('',#969);
#969 = AXIS2_PLACEMENT_3D('',#970,#971,#972);
#970 = CARTESIAN_POINT('',(2.999999480072,-4.5,-8.5));
#971 = DIRECTION('',(0.707106665647,-8.E-17,0.707106896726));
#972 = DIRECTION('',(0.707106896726,-8.E-17,-0.707106665647));
#973 = ADVANCED_FACE('',(#974),#985,.F.);
#974 = FACE_BOUND('',#975,.F.);
#975 = EDGE_LOOP('',(#976,#982,#983,#984));
#976 = ORIENTED_EDGE('',*,*,#977,.T.);
#977 = EDGE_CURVE('',#104,#738,#978,.T.);
#978 = LINE('',#979,#980);
#979 = CARTESIAN_POINT('',(-10.,-4.5,-10.00000051992));
#980 = VECTOR('',#981,1.);
#981 = DIRECTION('',(0.,-1.,1.1E-16));
#982 = ORIENTED_EDGE('',*,*,#745,.T.);
#983 = ORIENTED_EDGE('',*,*,#943,.F.);
#984 = ORIENTED_EDGE('',*,*,#103,.F.);
#985 = PLANE('',#986);
#986 = AXIS2_PLACEMENT_3D('',#987,#988,#989);
#987 = CARTESIAN_POINT('',(-10.,-4.5,-10.00000051992));
#988 = DIRECTION('',(0.,1.1E-16,1.));
#989 = DIRECTION('',(1.,0.,0.));
#990 = ADVANCED_FACE('',(#991),#1002,.F.);
#991 = FACE_BOUND('',#992,.F.);
#992 = EDGE_LOOP('',(#993,#994,#995,#1001));
#993 = ORIENTED_EDGE('',*,*,#962,.T.);
#994 = ORIENTED_EDGE('',*,*,#489,.T.);
#995 = ORIENTED_EDGE('',*,*,#996,.F.);
#996 = EDGE_CURVE('',#359,#490,#997,.T.);
#997 = LINE('',#998,#999);
#998 = CARTESIAN_POINT('',(10.000000519927,-4.5,-10.));
#999 = VECTOR('',#1000,1.);
#1000 = DIRECTION('',(-1.1E-16,-1.,0.));
#1001 = ORIENTED_EDGE('',*,*,#366,.F.);
#1002 = PLANE('',#1003);
#1003 = AXIS2_PLACEMENT_3D('',#1004,#1005,#1006);
#1004 = CARTESIAN_POINT('',(4.499999970265,-4.5,-10.));
#1005 = DIRECTION('',(0.,0.,1.));
#1006 = DIRECTION('',(1.,-1.1E-16,0.));
#1007 = ADVANCED_FACE('',(#1008),#1019,.F.);
#1008 = FACE_BOUND('',#1009,.F.);
#1009 = EDGE_LOOP('',(#1010,#1016,#1017,#1018));
#1010 = ORIENTED_EDGE('',*,*,#1011,.T.);
#1011 = EDGE_CURVE('',#112,#730,#1012,.T.);
#1012 = LINE('',#1013,#1014);
#1013 = CARTESIAN_POINT('',(-10.,-4.5,-4.499999970265));
#1014 = VECTOR('',#1015,1.);
#1015 = DIRECTION('',(0.,-1.,1.1E-16));
#1016 = ORIENTED_EDGE('',*,*,#737,.T.);
#1017 = ORIENTED_EDGE('',*,*,#977,.F.);
#1018 = ORIENTED_EDGE('',*,*,#111,.F.);
#1019 = PLANE('',#1020);
#1020 = AXIS2_PLACEMENT_3D('',#1021,#1022,#1023);
#1021 = CARTESIAN_POINT('',(-10.,-4.5,-4.499999970265));
#1022 = DIRECTION('',(1.,0.,0.));
#1023 = DIRECTION('',(0.,-1.1E-16,-1.));
#1024 = ADVANCED_FACE('',(#1025),#1036,.F.);
#1025 = FACE_BOUND('',#1026,.F.);
#1026 = EDGE_LOOP('',(#1027,#1028,#1029,#1035));
#1027 = ORIENTED_EDGE('',*,*,#996,.T.);
#1028 = ORIENTED_EDGE('',*,*,#497,.T.);
#1029 = ORIENTED_EDGE('',*,*,#1030,.F.);
#1030 = EDGE_CURVE('',#351,#498,#1031,.T.);
#1031 = LINE('',#1032,#1033);
#1032 = CARTESIAN_POINT('',(10.000000519927,-4.5,-4.500000490192));
#1033 = VECTOR('',#1034,1.);
#1034 = DIRECTION('',(-1.1E-16,-1.,0.));
#1035 = ORIENTED_EDGE('',*,*,#358,.F.);
#1036 = PLANE('',#1037);
#1037 = AXIS2_PLACEMENT_3D('',#1038,#1039,#1040);
#1038 = CARTESIAN_POINT('',(10.000000519927,-4.5,-10.));
#1039 = DIRECTION('',(-1.,1.1E-16,0.));
#1040 = DIRECTION('',(0.,0.,1.));
#1041 = ADVANCED_FACE('',(#1042),#1053,.F.);
#1042 = FACE_BOUND('',#1043,.F.);
#1043 = EDGE_LOOP('',(#1044,#1050,#1051,#1052));
#1044 = ORIENTED_EDGE('',*,*,#1045,.T.);
#1045 = EDGE_CURVE('',#120,#722,#1046,.T.);
#1046 = LINE('',#1047,#1048);
#1047 = CARTESIAN_POINT('',(-8.5,-4.5,-2.999999480072));
#1048 = VECTOR('',#1049,1.);
#1049 = DIRECTION('',(0.,-1.,1.1E-16));
#1050 = ORIENTED_EDGE('',*,*,#729,.T.);
#1051 = ORIENTED_EDGE('',*,*,#1011,.F.);
#1052 = ORIENTED_EDGE('',*,*,#119,.F.);
#1053 = PLANE('',#1054);
#1054 = AXIS2_PLACEMENT_3D('',#1055,#1056,#1057);
#1055 = CARTESIAN_POINT('',(-8.5,-4.5,-2.999999480072));
#1056 = DIRECTION('',(0.707106896726,-8.E-17,-0.707106665647));
#1057 = DIRECTION('',(-0.707106665647,-8.E-17,-0.707106896726));
#1058 = ADVANCED_FACE('',(#1059),#1070,.F.);
#1059 = FACE_BOUND('',#1060,.F.);
#1060 = EDGE_LOOP('',(#1061,#1062,#1063,#1069));
#1061 = ORIENTED_EDGE('',*,*,#1030,.T.);
#1062 = ORIENTED_EDGE('',*,*,#505,.T.);
#1063 = ORIENTED_EDGE('',*,*,#1064,.F.);
#1064 = EDGE_CURVE('',#343,#506,#1065,.T.);
#1065 = LINE('',#1066,#1067);
#1066 = CARTESIAN_POINT('',(8.500000519927,-4.5,-3.));
#1067 = VECTOR('',#1068,1.);
#1068 = DIRECTION('',(-1.1E-16,-1.,0.));
#1069 = ORIENTED_EDGE('',*,*,#350,.F.);
#1070 = PLANE('',#1071);
#1071 = AXIS2_PLACEMENT_3D('',#1072,#1073,#1074);
#1072 = CARTESIAN_POINT('',(10.000000519927,-4.5,-4.500000490192));
#1073 = DIRECTION('',(-0.707106896726,8.E-17,-0.707106665647));
#1074 = DIRECTION('',(-0.707106665647,8.E-17,0.707106896726));
#1075 = ADVANCED_FACE('',(#1076),#1087,.F.);
#1076 = FACE_BOUND('',#1077,.F.);
#1077 = EDGE_LOOP('',(#1078,#1084,#1085,#1086));
#1078 = ORIENTED_EDGE('',*,*,#1079,.T.);
#1079 = EDGE_CURVE('',#128,#714,#1080,.T.);
#1080 = LINE('',#1081,#1082);
#1081 = CARTESIAN_POINT('',(-8.5,-4.5,-4.499999970265));
#1082 = VECTOR('',#1083,1.);
#1083 = DIRECTION('',(0.,-1.,1.1E-16));
#1084 = ORIENTED_EDGE('',*,*,#721,.T.);
#1085 = ORIENTED_EDGE('',*,*,#1045,.F.);
#1086 = ORIENTED_EDGE('',*,*,#127,.F.);
#1087 = PLANE('',#1088);
#1088 = AXIS2_PLACEMENT_3D('',#1089,#1090,#1091);
#1089 = CARTESIAN_POINT('',(-8.5,-4.5,-4.499999970265));
#1090 = DIRECTION('',(-1.,0.,0.));
#1091 = DIRECTION('',(0.,1.1E-16,1.));
#1092 = ADVANCED_FACE('',(#1093),#1104,.T.);
#1093 = FACE_BOUND('',#1094,.T.);
#1094 = EDGE_LOOP('',(#1095,#1101,#1102,#1103));
#1095 = ORIENTED_EDGE('',*,*,#1096,.T.);
#1096 = EDGE_CURVE('',#335,#514,#1097,.T.);
#1097 = LINE('',#1098,#1099);
#1098 = CARTESIAN_POINT('',(8.500000519927,-4.5,-4.500000490192));
#1099 = VECTOR('',#1100,1.);
#1100 = DIRECTION('',(-1.1E-16,-1.,0.));
#1101 = ORIENTED_EDGE('',*,*,#513,.T.);
#1102 = ORIENTED_EDGE('',*,*,#1064,.F.);
#1103 = ORIENTED_EDGE('',*,*,#342,.F.);
#1104 = PLANE('',#1105);
#1105 = AXIS2_PLACEMENT_3D('',#1106,#1107,#1108);
#1106 = CARTESIAN_POINT('',(8.500000519927,-4.5,-4.500000490192));
#1107 = DIRECTION('',(-1.,1.1E-16,0.));
#1108 = DIRECTION('',(0.,0.,1.));
#1109 = ADVANCED_FACE('',(#1110),#1116,.F.);
#1110 = FACE_BOUND('',#1111,.F.);
#1111 = EDGE_LOOP('',(#1112,#1113,#1114,#1115));
#1112 = ORIENTED_EDGE('',*,*,#423,.T.);
#1113 = ORIENTED_EDGE('',*,*,#713,.T.);
#1114 = ORIENTED_EDGE('',*,*,#1079,.F.);
#1115 = ORIENTED_EDGE('',*,*,#135,.F.);
#1116 = PLANE('',#1117);
#1117 = AXIS2_PLACEMENT_3D('',#1118,#1119,#1120);
#1118 = CARTESIAN_POINT('',(-5.560660142045,-4.5,-4.499999970265));
#1119 = DIRECTION('',(0.,-1.1E-16,-1.));
#1120 = DIRECTION('',(-1.,0.,0.));
#1121 = ADVANCED_FACE('',(#1122),#1133,.F.);
#1122 = FACE_BOUND('',#1123,.F.);
#1123 = EDGE_LOOP('',(#1124,#1125,#1126,#1132));
#1124 = ORIENTED_EDGE('',*,*,#1096,.T.);
#1125 = ORIENTED_EDGE('',*,*,#521,.T.);
#1126 = ORIENTED_EDGE('',*,*,#1127,.F.);
#1127 = EDGE_CURVE('',#327,#522,#1128,.T.);
#1128 = LINE('',#1129,#1130);
#1129 = CARTESIAN_POINT('',(5.560660661972,-4.5,-4.500000490192));
#1130 = VECTOR('',#1131,1.);
#1131 = DIRECTION('',(-1.1E-16,-1.,0.));
#1132 = ORIENTED_EDGE('',*,*,#334,.F.);
#1133 = PLANE('',#1134);
#1134 = AXIS2_PLACEMENT_3D('',#1135,#1136,#1137);
#1135 = CARTESIAN_POINT('',(8.500000519927,-4.5,-4.500000490192));
#1136 = DIRECTION('',(0.,0.,-1.));
#1137 = DIRECTION('',(-1.,1.1E-16,0.));
#1138 = ADVANCED_FACE('',(#1139),#1150,.T.);
#1139 = FACE_BOUND('',#1140,.T.);
#1140 = EDGE_LOOP('',(#1141,#1147,#1148,#1149));
#1141 = ORIENTED_EDGE('',*,*,#1142,.T.);
#1142 = EDGE_CURVE('',#319,#530,#1143,.T.);
#1143 = LINE('',#1144,#1145);
#1144 = CARTESIAN_POINT('',(4.5,-4.5,-3.439339481602));
#1145 = VECTOR('',#1146,1.);
#1146 = DIRECTION('',(-1.1E-16,-1.,0.));
#1147 = ORIENTED_EDGE('',*,*,#529,.T.);
#1148 = ORIENTED_EDGE('',*,*,#1127,.F.);
#1149 = ORIENTED_EDGE('',*,*,#326,.F.);
#1150 = PLANE('',#1151);
#1151 = AXIS2_PLACEMENT_3D('',#1152,#1153,#1154);
#1152 = CARTESIAN_POINT('',(4.5,-4.5,-3.439339481602));
#1153 = DIRECTION('',(0.707106896726,-8.E-17,0.707106665647));
#1154 = DIRECTION('',(0.707106665647,-8.E-17,-0.707106896726));
#1155 = ADVANCED_FACE('',(#1156),#1167,.F.);
#1156 = FACE_BOUND('',#1157,.F.);
#1157 = EDGE_LOOP('',(#1158,#1159,#1160,#1161));
#1158 = ORIENTED_EDGE('',*,*,#318,.F.);
#1159 = ORIENTED_EDGE('',*,*,#1142,.T.);
#1160 = ORIENTED_EDGE('',*,*,#537,.T.);
#1161 = ORIENTED_EDGE('',*,*,#1162,.F.);
#1162 = EDGE_CURVE('',#311,#538,#1163,.T.);
#1163 = LINE('',#1164,#1165);
#1164 = CARTESIAN_POINT('',(4.5,-4.5,3.439339481602));
#1165 = VECTOR('',#1166,1.);
#1166 = DIRECTION('',(0.,-1.,-1.1E-16));
#1167 = PLANE('',#1168);
#1168 = AXIS2_PLACEMENT_3D('',#1169,#1170,#1171);
#1169 = CARTESIAN_POINT('',(4.5,-4.5,-4.5));
#1170 = DIRECTION('',(-1.,0.,0.));
#1171 = DIRECTION('',(0.,1.1E-16,1.));
#1172 = ADVANCED_FACE('',(#1173),#1184,.T.);
#1173 = FACE_BOUND('',#1174,.T.);
#1174 = EDGE_LOOP('',(#1175,#1181,#1182,#1183));
#1175 = ORIENTED_EDGE('',*,*,#1176,.T.);
#1176 = EDGE_CURVE('',#303,#546,#1177,.T.);
#1177 = LINE('',#1178,#1179);
#1178 = CARTESIAN_POINT('',(5.560660142045,-4.5,4.499999970265));
#1179 = VECTOR('',#1180,1.);
#1180 = DIRECTION('',(0.,-1.,-1.1E-16));
#1181 = ORIENTED_EDGE('',*,*,#545,.T.);
#1182 = ORIENTED_EDGE('',*,*,#1162,.F.);
#1183 = ORIENTED_EDGE('',*,*,#310,.F.);
#1184 = PLANE('',#1185);
#1185 = AXIS2_PLACEMENT_3D('',#1186,#1187,#1188);
#1186 = CARTESIAN_POINT('',(5.560660142045,-4.5,4.499999970265));
#1187 = DIRECTION('',(0.707106896726,8.E-17,-0.707106665647));
#1188 = DIRECTION('',(-0.707106665647,8.E-17,-0.707106896726));
#1189 = ADVANCED_FACE('',(#1190),#1201,.F.);
#1190 = FACE_BOUND('',#1191,.F.);
#1191 = EDGE_LOOP('',(#1192,#1198,#1199,#1200));
#1192 = ORIENTED_EDGE('',*,*,#1193,.T.);
#1193 = EDGE_CURVE('',#159,#690,#1194,.T.);
#1194 = LINE('',#1195,#1196);
#1195 = CARTESIAN_POINT('',(-8.500000519927,-4.5,4.500000490192));
#1196 = VECTOR('',#1197,1.);
#1197 = DIRECTION('',(1.1E-16,-1.,0.));
#1198 = ORIENTED_EDGE('',*,*,#697,.T.);
#1199 = ORIENTED_EDGE('',*,*,#804,.F.);
#1200 = ORIENTED_EDGE('',*,*,#158,.F.);
#1201 = PLANE('',#1202);
#1202 = AXIS2_PLACEMENT_3D('',#1203,#1204,#1205);
#1203 = CARTESIAN_POINT('',(-8.500000519927,-4.5,4.500000490192));
#1204 = DIRECTION('',(0.,0.,1.));
#1205 = DIRECTION('',(1.,1.1E-16,0.));
#1206 = ADVANCED_FACE('',(#1207),#1218,.F.);
#1207 = FACE_BOUND('',#1208,.F.);
#1208 = EDGE_LOOP('',(#1209,#1210,#1211,#1217));
#1209 = ORIENTED_EDGE('',*,*,#1176,.T.);
#1210 = ORIENTED_EDGE('',*,*,#553,.T.);
#1211 = ORIENTED_EDGE('',*,*,#1212,.F.);
#1212 = EDGE_CURVE('',#295,#554,#1213,.T.);
#1213 = LINE('',#1214,#1215);
#1214 = CARTESIAN_POINT('',(8.5,-4.5,4.499999970265));
#1215 = VECTOR('',#1216,1.);
#1216 = DIRECTION('',(0.,-1.,-1.1E-16));
#1217 = ORIENTED_EDGE('',*,*,#302,.F.);
#1218 = PLANE('',#1219);
#1219 = AXIS2_PLACEMENT_3D('',#1220,#1221,#1222);
#1220 = CARTESIAN_POINT('',(5.560660142045,-4.5,4.499999970265));
#1221 = DIRECTION('',(0.,-1.1E-16,1.));
#1222 = DIRECTION('',(1.,0.,0.));
#1223 = ADVANCED_FACE('',(#1224),#1235,.T.);
#1224 = FACE_BOUND('',#1225,.T.);
#1225 = EDGE_LOOP('',(#1226,#1227,#1228,#1234));
#1226 = ORIENTED_EDGE('',*,*,#1193,.T.);
#1227 = ORIENTED_EDGE('',*,*,#689,.T.);
#1228 = ORIENTED_EDGE('',*,*,#1229,.F.);
#1229 = EDGE_CURVE('',#167,#682,#1230,.T.);
#1230 = LINE('',#1231,#1232);
#1231 = CARTESIAN_POINT('',(-8.500000519927,-4.5,3.));
#1232 = VECTOR('',#1233,1.);
#1233 = DIRECTION('',(1.1E-16,-1.,0.));
#1234 = ORIENTED_EDGE('',*,*,#166,.F.);
#1235 = PLANE('',#1236);
#1236 = AXIS2_PLACEMENT_3D('',#1237,#1238,#1239);
#1237 = CARTESIAN_POINT('',(-8.500000519927,-4.5,4.500000490192));
#1238 = DIRECTION('',(1.,1.1E-16,0.));
#1239 = DIRECTION('',(0.,0.,-1.));
#1240 = ADVANCED_FACE('',(#1241),#1252,.F.);
#1241 = FACE_BOUND('',#1242,.F.);
#1242 = EDGE_LOOP('',(#1243,#1244,#1245,#1251));
#1243 = ORIENTED_EDGE('',*,*,#1212,.T.);
#1244 = ORIENTED_EDGE('',*,*,#561,.T.);
#1245 = ORIENTED_EDGE('',*,*,#1246,.F.);
#1246 = EDGE_CURVE('',#287,#562,#1247,.T.);
#1247 = LINE('',#1248,#1249);
#1248 = CARTESIAN_POINT('',(8.5,-4.5,2.999999480072));
#1249 = VECTOR('',#1250,1.);
#1250 = DIRECTION('',(0.,-1.,-1.1E-16));
#1251 = ORIENTED_EDGE('',*,*,#294,.F.);
#1252 = PLANE('',#1253);
#1253 = AXIS2_PLACEMENT_3D('',#1254,#1255,#1256);
#1254 = CARTESIAN_POINT('',(8.5,-4.5,4.499999970265));
#1255 = DIRECTION('',(1.,0.,0.));
#1256 = DIRECTION('',(0.,1.1E-16,-1.));
#1257 = ADVANCED_FACE('',(#1258),#1269,.F.);
#1258 = FACE_BOUND('',#1259,.F.);
#1259 = EDGE_LOOP('',(#1260,#1266,#1267,#1268));
#1260 = ORIENTED_EDGE('',*,*,#1261,.T.);
#1261 = EDGE_CURVE('',#175,#674,#1262,.T.);
#1262 = LINE('',#1263,#1264);
#1263 = CARTESIAN_POINT('',(-10.00000051992,-4.5,4.500000490192));
#1264 = VECTOR('',#1265,1.);
#1265 = DIRECTION('',(1.1E-16,-1.,0.));
#1266 = ORIENTED_EDGE('',*,*,#681,.T.);
#1267 = ORIENTED_EDGE('',*,*,#1229,.F.);
#1268 = ORIENTED_EDGE('',*,*,#174,.F.);
#1269 = PLANE('',#1270);
#1270 = AXIS2_PLACEMENT_3D('',#1271,#1272,#1273);
#1271 = CARTESIAN_POINT('',(-10.00000051992,-4.5,4.500000490192));
#1272 = DIRECTION('',(0.707106896726,8.E-17,0.707106665647));
#1273 = DIRECTION('',(0.707106665647,8.E-17,-0.707106896726));
#1274 = ADVANCED_FACE('',(#1275),#1286,.F.);
#1275 = FACE_BOUND('',#1276,.F.);
#1276 = EDGE_LOOP('',(#1277,#1278,#1279,#1285));
#1277 = ORIENTED_EDGE('',*,*,#1246,.T.);
#1278 = ORIENTED_EDGE('',*,*,#569,.T.);
#1279 = ORIENTED_EDGE('',*,*,#1280,.F.);
#1280 = EDGE_CURVE('',#279,#570,#1281,.T.);
#1281 = LINE('',#1282,#1283);
#1282 = CARTESIAN_POINT('',(10.,-4.5,4.499999970265));
#1283 = VECTOR('',#1284,1.);
#1284 = DIRECTION('',(0.,-1.,-1.1E-16));
#1285 = ORIENTED_EDGE('',*,*,#286,.F.);
#1286 = PLANE('',#1287);
#1287 = AXIS2_PLACEMENT_3D('',#1288,#1289,#1290);
#1288 = CARTESIAN_POINT('',(8.5,-4.5,2.999999480072));
#1289 = DIRECTION('',(-0.707106896726,-8.E-17,0.707106665647));
#1290 = DIRECTION('',(0.707106665647,-8.E-17,0.707106896726));
#1291 = ADVANCED_FACE('',(#1292),#1303,.F.);
#1292 = FACE_BOUND('',#1293,.F.);
#1293 = EDGE_LOOP('',(#1294,#1300,#1301,#1302));
#1294 = ORIENTED_EDGE('',*,*,#1295,.T.);
#1295 = EDGE_CURVE('',#183,#666,#1296,.T.);
#1296 = LINE('',#1297,#1298);
#1297 = CARTESIAN_POINT('',(-10.00000051992,-4.5,10.));
#1298 = VECTOR('',#1299,1.);
#1299 = DIRECTION('',(1.1E-16,-1.,0.));
#1300 = ORIENTED_EDGE('',*,*,#673,.T.);
#1301 = ORIENTED_EDGE('',*,*,#1261,.F.);
#1302 = ORIENTED_EDGE('',*,*,#182,.F.);
#1303 = PLANE('',#1304);
#1304 = AXIS2_PLACEMENT_3D('',#1305,#1306,#1307);
#1305 = CARTESIAN_POINT('',(-10.00000051992,-4.5,10.));
#1306 = DIRECTION('',(1.,1.1E-16,0.));
#1307 = DIRECTION('',(0.,0.,-1.));
#1308 = ADVANCED_FACE('',(#1309),#1320,.F.);
#1309 = FACE_BOUND('',#1310,.F.);
#1310 = EDGE_LOOP('',(#1311,#1312,#1313,#1319));
#1311 = ORIENTED_EDGE('',*,*,#1280,.T.);
#1312 = ORIENTED_EDGE('',*,*,#577,.T.);
#1313 = ORIENTED_EDGE('',*,*,#1314,.F.);
#1314 = EDGE_CURVE('',#271,#578,#1315,.T.);
#1315 = LINE('',#1316,#1317);
#1316 = CARTESIAN_POINT('',(10.,-4.5,10.000000519927));
#1317 = VECTOR('',#1318,1.);
#1318 = DIRECTION('',(0.,-1.,-1.1E-16));
#1319 = ORIENTED_EDGE('',*,*,#278,.F.);
#1320 = PLANE('',#1321);
#1321 = AXIS2_PLACEMENT_3D('',#1322,#1323,#1324);
#1322 = CARTESIAN_POINT('',(10.,-4.5,4.499999970265));
#1323 = DIRECTION('',(-1.,0.,0.));
#1324 = DIRECTION('',(0.,-1.1E-16,1.));
#1325 = ADVANCED_FACE('',(#1326),#1337,.F.);
#1326 = FACE_BOUND('',#1327,.F.);
#1327 = EDGE_LOOP('',(#1328,#1334,#1335,#1336));
#1328 = ORIENTED_EDGE('',*,*,#1329,.T.);
#1329 = EDGE_CURVE('',#191,#658,#1330,.T.);
#1330 = LINE('',#1331,#1332);
#1331 = CARTESIAN_POINT('',(-4.499999970265,-4.5,10.));
#1332 = VECTOR('',#1333,1.);
#1333 = DIRECTION('',(1.1E-16,-1.,0.));
#1334 = ORIENTED_EDGE('',*,*,#665,.T.);
#1335 = ORIENTED_EDGE('',*,*,#1295,.F.);
#1336 = ORIENTED_EDGE('',*,*,#190,.F.);
#1337 = PLANE('',#1338);
#1338 = AXIS2_PLACEMENT_3D('',#1339,#1340,#1341);
#1339 = CARTESIAN_POINT('',(-4.499999970265,-4.5,10.));
#1340 = DIRECTION('',(0.,0.,-1.));
#1341 = DIRECTION('',(-1.,-1.1E-16,0.));
#1342 = ADVANCED_FACE('',(#1343),#1354,.F.);
#1343 = FACE_BOUND('',#1344,.F.);
#1344 = EDGE_LOOP('',(#1345,#1346,#1347,#1353));
#1345 = ORIENTED_EDGE('',*,*,#1314,.T.);
#1346 = ORIENTED_EDGE('',*,*,#585,.T.);
#1347 = ORIENTED_EDGE('',*,*,#1348,.F.);
#1348 = EDGE_CURVE('',#263,#586,#1349,.T.);
#1349 = LINE('',#1350,#1351);
#1350 = CARTESIAN_POINT('',(4.500000490192,-4.5,10.000000519927));
#1351 = VECTOR('',#1352,1.);
#1352 = DIRECTION('',(0.,-1.,-1.1E-16));
#1353 = ORIENTED_EDGE('',*,*,#270,.F.);
#1354 = PLANE('',#1355);
#1355 = AXIS2_PLACEMENT_3D('',#1356,#1357,#1358);
#1356 = CARTESIAN_POINT('',(10.,-4.5,10.000000519927));
#1357 = DIRECTION('',(-0.,1.1E-16,-1.));
#1358 = DIRECTION('',(-1.,0.,0.));
#1359 = ADVANCED_FACE('',(#1360),#1371,.F.);
#1360 = FACE_BOUND('',#1361,.F.);
#1361 = EDGE_LOOP('',(#1362,#1368,#1369,#1370));
#1362 = ORIENTED_EDGE('',*,*,#1363,.T.);
#1363 = EDGE_CURVE('',#199,#650,#1364,.T.);
#1364 = LINE('',#1365,#1366);
#1365 = CARTESIAN_POINT('',(-2.999999480072,-4.5,8.5));
#1366 = VECTOR('',#1367,1.);
#1367 = DIRECTION('',(1.1E-16,-1.,0.));
#1368 = ORIENTED_EDGE('',*,*,#657,.T.);
#1369 = ORIENTED_EDGE('',*,*,#1329,.F.);
#1370 = ORIENTED_EDGE('',*,*,#198,.F.);
#1371 = PLANE('',#1372);
#1372 = AXIS2_PLACEMENT_3D('',#1373,#1374,#1375);
#1373 = CARTESIAN_POINT('',(-2.999999480072,-4.5,8.5));
#1374 = DIRECTION('',(-0.707106665647,-8.E-17,-0.707106896726));
#1375 = DIRECTION('',(-0.707106896726,-8.E-17,0.707106665647));
#1376 = ADVANCED_FACE('',(#1377),#1388,.F.);
#1377 = FACE_BOUND('',#1378,.F.);
#1378 = EDGE_LOOP('',(#1379,#1380,#1381,#1387));
#1379 = ORIENTED_EDGE('',*,*,#1348,.T.);
#1380 = ORIENTED_EDGE('',*,*,#593,.T.);
#1381 = ORIENTED_EDGE('',*,*,#1382,.F.);
#1382 = EDGE_CURVE('',#255,#594,#1383,.T.);
#1383 = LINE('',#1384,#1385);
#1384 = CARTESIAN_POINT('',(3.,-4.5,8.500000519927));
#1385 = VECTOR('',#1386,1.);
#1386 = DIRECTION('',(0.,-1.,-1.1E-16));
#1387 = ORIENTED_EDGE('',*,*,#262,.F.);
#1388 = PLANE('',#1389);
#1389 = AXIS2_PLACEMENT_3D('',#1390,#1391,#1392);
#1390 = CARTESIAN_POINT('',(4.500000490192,-4.5,10.000000519927));
#1391 = DIRECTION('',(0.707106665647,8.E-17,-0.707106896726));
#1392 = DIRECTION('',(-0.707106896726,8.E-17,-0.707106665647));
#1393 = ADVANCED_FACE('',(#1394),#1405,.F.);
#1394 = FACE_BOUND('',#1395,.F.);
#1395 = EDGE_LOOP('',(#1396,#1402,#1403,#1404));
#1396 = ORIENTED_EDGE('',*,*,#1397,.T.);
#1397 = EDGE_CURVE('',#207,#642,#1398,.T.);
#1398 = LINE('',#1399,#1400);
#1399 = CARTESIAN_POINT('',(-4.499999970265,-4.5,8.5));
#1400 = VECTOR('',#1401,1.);
#1401 = DIRECTION('',(1.1E-16,-1.,0.));
#1402 = ORIENTED_EDGE('',*,*,#649,.T.);
#1403 = ORIENTED_EDGE('',*,*,#1363,.F.);
#1404 = ORIENTED_EDGE('',*,*,#206,.F.);
#1405 = PLANE('',#1406);
#1406 = AXIS2_PLACEMENT_3D('',#1407,#1408,#1409);
#1407 = CARTESIAN_POINT('',(-4.499999970265,-4.5,8.5));
#1408 = DIRECTION('',(0.,0.,1.));
#1409 = DIRECTION('',(1.,1.1E-16,0.));
#1410 = ADVANCED_FACE('',(#1411),#1422,.T.);
#1411 = FACE_BOUND('',#1412,.T.);
#1412 = EDGE_LOOP('',(#1413,#1419,#1420,#1421));
#1413 = ORIENTED_EDGE('',*,*,#1414,.T.);
#1414 = EDGE_CURVE('',#247,#602,#1415,.T.);
#1415 = LINE('',#1416,#1417);
#1416 = CARTESIAN_POINT('',(4.500000490192,-4.5,8.500000519927));
#1417 = VECTOR('',#1418,1.);
#1418 = DIRECTION('',(0.,-1.,-1.1E-16));
#1419 = ORIENTED_EDGE('',*,*,#601,.T.);
#1420 = ORIENTED_EDGE('',*,*,#1382,.F.);
#1421 = ORIENTED_EDGE('',*,*,#254,.F.);
#1422 = PLANE('',#1423);
#1423 = AXIS2_PLACEMENT_3D('',#1424,#1425,#1426);
#1424 = CARTESIAN_POINT('',(4.500000490192,-4.5,8.500000519927));
#1425 = DIRECTION('',(-0.,1.1E-16,-1.));
#1426 = DIRECTION('',(-1.,0.,0.));
#1427 = ADVANCED_FACE('',(#1428),#1439,.F.);
#1428 = FACE_BOUND('',#1429,.F.);
#1429 = EDGE_LOOP('',(#1430,#1436,#1437,#1438));
#1430 = ORIENTED_EDGE('',*,*,#1431,.T.);
#1431 = EDGE_CURVE('',#215,#634,#1432,.T.);
#1432 = LINE('',#1433,#1434);
#1433 = CARTESIAN_POINT('',(-4.499999970265,-4.5,5.560660142045));
#1434 = VECTOR('',#1435,1.);
#1435 = DIRECTION('',(1.1E-16,-1.,0.));
#1436 = ORIENTED_EDGE('',*,*,#641,.T.);
#1437 = ORIENTED_EDGE('',*,*,#1397,.F.);
#1438 = ORIENTED_EDGE('',*,*,#214,.F.);
#1439 = PLANE('',#1440);
#1440 = AXIS2_PLACEMENT_3D('',#1441,#1442,#1443);
#1441 = CARTESIAN_POINT('',(-4.499999970265,-4.5,5.560660142045));
#1442 = DIRECTION('',(-1.,-1.1E-16,0.));
#1443 = DIRECTION('',(0.,0.,1.));
#1444 = ADVANCED_FACE('',(#1445),#1456,.F.);
#1445 = FACE_BOUND('',#1446,.F.);
#1446 = EDGE_LOOP('',(#1447,#1448,#1449,#1455));
#1447 = ORIENTED_EDGE('',*,*,#1414,.T.);
#1448 = ORIENTED_EDGE('',*,*,#609,.T.);
#1449 = ORIENTED_EDGE('',*,*,#1450,.F.);
#1450 = EDGE_CURVE('',#239,#610,#1451,.T.);
#1451 = LINE('',#1452,#1453);
#1452 = CARTESIAN_POINT('',(4.500000490192,-4.5,5.560660661972));
#1453 = VECTOR('',#1454,1.);
#1454 = DIRECTION('',(0.,-1.,-1.1E-16));
#1455 = ORIENTED_EDGE('',*,*,#246,.F.);
#1456 = PLANE('',#1457);
#1457 = AXIS2_PLACEMENT_3D('',#1458,#1459,#1460);
#1458 = CARTESIAN_POINT('',(4.500000490192,-4.5,8.500000519927));
#1459 = DIRECTION('',(1.,0.,0.));
#1460 = DIRECTION('',(0.,1.1E-16,-1.));
#1461 = ADVANCED_FACE('',(#1462),#1473,.T.);
#1462 = FACE_BOUND('',#1463,.T.);
#1463 = EDGE_LOOP('',(#1464,#1465,#1466,#1472));
#1464 = ORIENTED_EDGE('',*,*,#1431,.T.);
#1465 = ORIENTED_EDGE('',*,*,#633,.T.);
#1466 = ORIENTED_EDGE('',*,*,#1467,.F.);
#1467 = EDGE_CURVE('',#223,#626,#1468,.T.);
#1468 = LINE('',#1469,#1470);
#1469 = CARTESIAN_POINT('',(-3.439339481602,-4.5,4.5));
#1470 = VECTOR('',#1471,1.);
#1471 = DIRECTION('',(1.1E-16,-1.,0.));
#1472 = ORIENTED_EDGE('',*,*,#222,.F.);
#1473 = PLANE('',#1474);
#1474 = AXIS2_PLACEMENT_3D('',#1475,#1476,#1477);
#1475 = CARTESIAN_POINT('',(-4.499999970265,-4.5,5.560660142045));
#1476 = DIRECTION('',(0.707106665647,8.E-17,0.707106896726));
#1477 = DIRECTION('',(0.707106896726,8.E-17,-0.707106665647));
#1478 = ADVANCED_FACE('',(#1479),#1490,.T.);
#1479 = FACE_BOUND('',#1480,.T.);
#1480 = EDGE_LOOP('',(#1481,#1487,#1488,#1489));
#1481 = ORIENTED_EDGE('',*,*,#1482,.T.);
#1482 = EDGE_CURVE('',#231,#618,#1483,.T.);
#1483 = LINE('',#1484,#1485);
#1484 = CARTESIAN_POINT('',(3.439339481602,-4.5,4.5));
#1485 = VECTOR('',#1486,1.);
#1486 = DIRECTION('',(0.,-1.,-1.1E-16));
#1487 = ORIENTED_EDGE('',*,*,#617,.T.);
#1488 = ORIENTED_EDGE('',*,*,#1450,.F.);
#1489 = ORIENTED_EDGE('',*,*,#238,.F.);
#1490 = PLANE('',#1491);
#1491 = AXIS2_PLACEMENT_3D('',#1492,#1493,#1494);
#1492 = CARTESIAN_POINT('',(3.439339481602,-4.5,4.5));
#1493 = DIRECTION('',(-0.707106665647,-8.E-17,0.707106896726));
#1494 = DIRECTION('',(0.707106896726,-8.E-17,0.707106665647));
#1495 = ADVANCED_FACE('',(#1496),#1502,.F.);
#1496 = FACE_BOUND('',#1497,.F.);
#1497 = EDGE_LOOP('',(#1498,#1499,#1500,#1501));
#1498 = ORIENTED_EDGE('',*,*,#230,.F.);
#1499 = ORIENTED_EDGE('',*,*,#1482,.T.);
#1500 = ORIENTED_EDGE('',*,*,#625,.T.);
#1501 = ORIENTED_EDGE('',*,*,#1467,.F.);
#1502 = PLANE('',#1503);
#1503 = AXIS2_PLACEMENT_3D('',#1504,#1505,#1506);
#1504 = CARTESIAN_POINT('',(4.5,-4.5,4.5));
#1505 = DIRECTION('',(0.,-1.1E-16,-1.));
#1506 = DIRECTION('',(-1.,0.,0.));
#1507 = ADVANCED_FACE('',(#1508),#1519,.F.);
#1508 = FACE_BOUND('',#1509,.F.);
#1509 = EDGE_LOOP('',(#1510,#1516,#1517,#1518));
#1510 = ORIENTED_EDGE('',*,*,#1511,.F.);
#1511 = EDGE_CURVE('',#407,#786,#1512,.T.);
#1512 = LINE('',#1513,#1514);
#1513 = CARTESIAN_POINT('',(2.75,-4.5,0.));
#1514 = VECTOR('',#1515,1.);
#1515 = DIRECTION('',(0.,-1.,-3.3E-16));
#1516 = ORIENTED_EDGE('',*,*,#406,.F.);
#1517 = ORIENTED_EDGE('',*,*,#1511,.T.);
#1518 = ORIENTED_EDGE('',*,*,#785,.T.);
#1519 = CYLINDRICAL_SURFACE('',#1520,2.75);
#1520 = AXIS2_PLACEMENT_3D('',#1521,#1522,#1523);
#1521 = CARTESIAN_POINT('',(0.,-4.5,0.));
#1522 = DIRECTION('',(0.,1.,3.3E-16));
#1523 = DIRECTION('',(1.,0.,-0.));
#1524 = ( GEOMETRIC_REPRESENTATION_CONTEXT(3) 
GLOBAL_UNCERTAINTY_ASSIGNED_CONTEXT((#1528)) 
GLOBAL_UNIT_ASSIGNED_CONTEXT((#1525,#1526,#1527)) REPRESENTATION_CONTEXT
('Context #1','3D Context with UNIT and UNCERTAINTY') );
#1525 = ( LENGTH_UNIT() NAMED_UNIT(*) SI_UNIT(.MILLI.,.METRE.) );
#1526 = ( NAMED_UNIT(*) PLANE_ANGLE_UNIT() SI_UNIT($,.RADIAN.) );
#1527 = ( NAMED_UNIT(*) SI_UNIT($,.STERADIAN.) SOLID_ANGLE_UNIT() );
#1528 = UNCERTAINTY_MEASURE_WITH_UNIT(LENGTH_MEASURE(1.E-07),#1525,
  'distance_accuracy_value','confusion accuracy');
#1529 = PRODUCT_RELATED_PRODUCT_CATEGORY('part',$,(#7));
#1530 = MECHANICAL_DESIGN_GEOMETRIC_PRESENTATION_REPRESENTATION('',(
    #1531),#1524);
#1531 = STYLED_ITEM('color',(#1532),#15);
#1532 = PRESENTATION_STYLE_ASSIGNMENT((#1533,#1539));
#1533 = SURFACE_STYLE_USAGE(.BOTH.,#1534);
#1534 = SURFACE_SIDE_STYLE('',(#1535));
#1535 = SURFACE_STYLE_FILL_AREA(#1536);
#1536 = FILL_AREA_STYLE('',(#1537));
#1537 = FILL_AREA_STYLE_COLOUR('',#1538);
#1538 = COLOUR_RGB('',0.301960791261,0.301960791261,0.301960791261);
#1539 = CURVE_STYLE('',#1540,POSITIVE_LENGTH_MEASURE(0.1),#1541);
#1540 = DRAUGHTING_PRE_DEFINED_CURVE_FONT('continuous');
#1541 = COLOUR_RGB('',9.803921802644E-02,9.803921802644E-02,
  9.803921802644E-02);
ENDSEC;
END-ISO-10303-21;
